<?xml version="1.0" encoding="UTF-8" standalone="no"?>
<svg
   xmlns:dc="http://purl.org/dc/elements/1.1/"
   xmlns:cc="http://creativecommons.org/ns#"
   xmlns:rdf="http://www.w3.org/1999/02/22-rdf-syntax-ns#"
   xmlns:svg="http://www.w3.org/2000/svg"
   xmlns="http://www.w3.org/2000/svg"
   xmlns:sodipodi="http://sodipodi.sourceforge.net/DTD/sodipodi-0.dtd"
   xmlns:inkscape="http://www.inkscape.org/namespaces/inkscape"
   width="123.8274658203125px"
   height="122.021240234375px"
   viewBox="188.08626708984374 13.9893798828125 123.8274658203125 122.021240234375"
   style="background: rgba(0, 0, 0, 0);"
   preserveAspectRatio="xMidYMid"
   version="1.1"
   id="svg3787"
   sodipodi:docname="FGLogo.svg"
   inkscape:version="0.92.4 5da689c313, 2019-01-14">
  <metadata
     id="metadata3791">
    <rdf:RDF>
      <cc:Work
         rdf:about="">
        <dc:format>image/svg+xml</dc:format>
        <dc:type
           rdf:resource="http://purl.org/dc/dcmitype/StillImage" />
      </cc:Work>
    </rdf:RDF>
  </metadata>
  <sodipodi:namedview
     pagecolor="#ffffff"
     bordercolor="#666666"
     borderopacity="1"
     objecttolerance="10"
     gridtolerance="10"
     guidetolerance="10"
     inkscape:pageopacity="0"
     inkscape:pageshadow="2"
     inkscape:window-width="1920"
     inkscape:window-height="1039"
     id="namedview3789"
     showgrid="false"
     inkscape:zoom="6.9496097"
     inkscape:cx="62.20152"
     inkscape:cy="56.738898"
     inkscape:window-x="0"
     inkscape:window-y="20"
     inkscape:window-maximized="0"
     inkscape:current-layer="svg3787" />
  <defs
     id="defs3777">
    <filter
       id="editing-jagged"
       x="-100%"
       y="-100%"
       width="300%"
       height="300%">
      <feTurbulence
         result="turb"
         baseFrequency="0.1"
         numOctaves="1"
         seed="1"
         id="feTurbulence3772" />
      <feDisplacementMap
         in="SourceGraphic"
         in2="turb"
         scale="10"
         id="feDisplacementMap3774" />
    </filter>
  </defs>
  <g
     id="g3783"
     filter="url(#editing-jagged)">
    <g
       transform="translate(212.11499890685081, 97.39218711853027)"
       id="g3781">
      <path
         d="M30.21-33.92L30.21-33.92L30.21-33.92Q25.02-33.92 21.25-35.65L21.25-35.65L19.20-25.28L31.55-25.28L31.55-25.28Q31.55-21.89 29.86-19.74L29.86-19.74L29.86-19.74Q28.16-17.60 25.09-17.60L25.09-17.60L25.09-17.60Q21.76-17.60 18.69-18.82L18.69-18.82L18.69-18.82Q18.05-19.07 17.98-19.14L17.98-19.14L14.34 0L0.38 0L8.51-42.24L37.06-42.24L37.06-42.24Q37.06-38.34 35.23-36.13L35.23-36.13L35.23-36.13Q33.41-33.92 30.21-33.92ZM61.38-20.61L74.30-21.76L74.30-21.76Q69.70-11.65 69.70 0.06L69.70 0.06L69.70 0.06Q67.97 1.28 65.44 1.28L65.44 1.28L65.44 1.28Q62.91 1.28 61.31 0.10L61.31 0.10L61.31 0.10Q59.71-1.09 59.39-2.30L59.39-2.30L59.39-2.30Q57.79-0.64 55.20 0.32L55.20 0.32L55.20 0.32Q52.61 1.28 49.86 1.28L49.86 1.28L49.86 1.28Q47.10 1.28 44.70 0.38L44.70 0.38L44.70 0.38Q42.30-0.51 40.45-2.50L40.45-2.50L40.45-2.50Q36.35-6.85 36.35-15.10L36.35-15.10L36.35-15.10Q36.35-27.90 43.20-35.58L43.20-35.58L43.20-35.58Q50.24-43.52 62.72-43.52L62.72-43.52L62.72-43.52Q71.36-43.52 74.43-39.04L74.43-39.04L74.43-39.04Q75.39-37.63 75.39-35.94L75.39-35.94L75.39-35.94Q75.39-34.24 74.66-32.80L74.66-32.80L74.66-32.80Q73.92-31.36 72.77-30.21L72.77-30.21L72.77-30.21Q70.02-27.65 66.62-27.65L66.62-27.65L66.62-27.65Q65.28-27.65 64-28.10L64-28.10L64-28.10Q64.26-30.02 64.26-32.26L64.26-32.26L64.26-32.26Q64.26-34.50 64.10-35.52L64.10-35.52L64.10-35.52Q63.94-36.54 63.55-37.38L63.55-37.38L63.55-37.38Q62.72-39.10 60.90-39.10L60.90-39.10L60.90-39.10Q59.07-39.10 57.06-37.15L57.06-37.15L57.06-37.15Q55.04-35.20 53.44-32L53.44-32L53.44-32Q49.92-24.83 49.92-16.19L49.92-16.19L49.92-16.19Q49.92-12.22 51.46-9.41L51.46-9.41L51.46-9.41Q53.12-6.34 56.06-6.34L56.06-6.34L56.06-6.34Q57.09-6.34 58.02-6.85L58.02-6.85L58.02-6.85Q58.94-7.36 59.33-7.74L59.33-7.74L61.38-20.61Z"
         id="path3779"
         fill="#444" />
    </g>
  </g>
  <style
     id="style3785">text {
  font-size: 64px;
  font-family: Arial Black;
  dominant-baseline: central;
  text-anchor: middle;
}</style>
  <path
     style="fill:#ececec;stroke-width:0.14389297"
     d="m 37.998722,87.400338 c -0.830981,-0.07309 -2.741161,-0.104157 -4.244842,-0.06905 -1.938956,0.04527 -3.089629,0.0052 -3.957057,-0.137824 -1.596662,-0.263246 -1.754646,-0.326604 -1.295037,-0.51936 0.197853,-0.08298 0.430965,-0.166465 0.518027,-0.185528 0.08706,-0.01906 0.331321,-0.125318 0.542798,-0.236123 l 0.384504,-0.201461 -0.579011,-0.77605 c -1.763888,-2.364144 -2.245466,-3.567894 -1.895157,-4.73712 0.219292,-0.731932 1.064075,-1.604403 2.445176,-2.525318 0.581133,-0.387498 1.246082,-0.894018 1.477666,-1.125601 l 0.42106,-0.421061 -0.451992,-0.514792 c -0.416593,-0.474472 -0.445843,-0.574371 -0.373475,-1.275555 0.04318,-0.41842 0.193906,-0.913736 0.334934,-1.100702 0.285984,-0.379138 0.890763,-0.71162 1.080793,-0.594176 0.153472,0.09485 0.15545,0.129605 -0.08671,-1.523367 -0.110146,-0.751841 -0.180188,-1.884998 -0.15565,-2.518127 0.0383,-0.988113 0.129661,-1.339795 0.645114,-2.483188 0.330275,-0.732624 0.732947,-1.703902 0.894826,-2.158395 0.436102,-1.224398 0.504078,-3.239937 0.188506,-5.589325 -0.222076,-1.653319 -0.234587,-2.100926 -0.08587,-3.072394 0.272188,-1.778042 0.738898,-2.484263 1.82197,-2.756984 0.353494,-0.08901 0.642717,-0.188607 0.642717,-0.221324 0,-0.03272 -0.102929,-0.300225 -0.228731,-0.594463 -0.640446,-1.497933 -1.496337,-4.897658 -1.497549,-5.948486 -3.7e-4,-0.32016 -0.528426,-2.605943 -0.798862,-3.458011 -0.07226,-0.22767 -0.0031,-0.265683 0.483371,-0.265683 0.765294,0 1.235409,0.214876 3.637875,1.662773 2.093095,1.261448 3.890067,2.222337 4.156023,2.222337 0.243525,0 0.167066,-0.803227 -0.153587,-1.613469 -0.39836,-1.006602 -0.427252,-2.008246 -0.06933,-2.403742 0.692131,-0.764796 1.721568,-0.06348 2.25181,1.534063 0.420334,1.266415 0.897541,1.97174 1.540436,2.276814 0.495023,0.234904 0.558008,0.233727 1.318075,-0.02463 1.114551,-0.378848 1.863616,-0.999861 2.476251,-2.052942 0.751441,-1.291676 1.192116,-1.7451 1.69603,-1.7451 0.461946,0 0.866386,0.317575 0.883534,0.693769 0.0061,0.132844 0.03266,0.354557 0.05912,0.492696 0.02646,0.138139 -0.03644,0.614901 -0.139787,1.059472 -0.15363,0.660892 -0.161737,1.591077 -0.01521,1.744632 0.01759,0.01843 0.253894,-0.03013 0.525124,-0.10792 0.633079,-0.181564 2.185775,-0.175867 2.996299,0.011 0.711282,0.163982 1.008745,-0.0026 1.418094,-0.794207 0.573558,-1.109139 2.030819,-1.841804 3.053747,-1.535327 0.741366,0.222118 1.046145,0.525911 1.570647,1.565562 0.249542,0.494632 0.481909,0.899331 0.516373,0.899331 0.03446,0 0.341104,-0.184345 0.681421,-0.409654 1.505734,-0.996884 1.982944,-1.125923 1.513338,-0.409213 -0.122981,0.187692 -0.298849,0.620705 -0.390818,0.962252 -0.168237,0.624786 -0.208252,2.72294 -0.06724,3.525886 0.04169,0.237423 0.138602,0.783518 0.21535,1.213544 0.187129,1.048488 0.178497,1.166605 -0.07806,1.068154 -0.474758,-0.182181 -1.473159,0.106103 -2.036021,0.587892 -1.280167,1.095775 -2.182753,1.33581 -3.599421,0.957236 -0.81904,-0.218871 -3.418465,-0.427168 -4.674708,-0.374592 -1.019191,0.04265 -1.128243,0.019 -1.43893,-0.312089 -0.352002,-0.37512 -1.623871,-1.017178 -2.264297,-1.143051 -0.318864,-0.06267 -0.401684,-0.003 -0.56046,0.403613 -0.392555,1.005371 -0.827401,1.805538 -1.471372,2.707493 -1.233038,1.727008 -1.308432,1.864041 -1.422473,2.58546 -0.147385,0.932356 0.194275,1.532161 1.286316,2.258202 0.432621,0.287628 0.816277,0.548465 0.852567,0.579641 0.03629,0.03118 -0.276249,0.361543 -0.69453,0.734148 l -0.76051,0.677465 h 2.924869 c 3.210985,0 3.464314,0.05195 4.586164,0.940472 0.532789,0.421976 0.58326,0.433544 1.174426,0.269149 0.860287,-0.239234 2.658231,-0.239133 3.383381,1.44e-4 0.492051,0.16239 0.64809,0.165628 0.826989,0.01715 0.187281,-0.155429 0.222325,-0.131566 0.232577,0.158376 0.0066,0.187757 0.02283,0.628783 0.03597,0.980058 l 0.0239,0.638679 -0.935305,0.260951 c -1.94825,0.543564 -2.687825,0.873022 -4.234718,1.886428 -1.895883,1.242041 -1.951721,1.269282 -3.607449,1.759914 -1.713515,0.507755 -2.310609,0.629236 -3.129672,0.636746 -0.55113,0.0051 -0.686794,-0.0425 -0.700544,-0.245546 -0.0094,-0.138497 -0.03411,-0.607948 -0.05496,-1.043224 -0.02085,-0.435276 -0.05365,-0.807599 -0.07288,-0.827385 -0.04158,-0.04277 -0.09986,-0.264399 -0.124902,-0.474995 -0.05452,-0.458464 -1.744639,-0.672098 -2.762176,-0.349144 -0.349339,0.110875 -0.34708,0.211731 0.02234,0.997634 0.362984,0.772217 0.754377,1.209946 1.556497,1.740762 l 0.606683,0.401483 -0.763889,0.461477 c -1.63362,0.986895 -2.004859,1.258459 -2.36393,1.729225 -0.693181,0.908808 -0.566741,2.023372 0.529417,4.666735 0.435222,1.04953 0.470142,3.178623 0.07788,4.748468 -0.148315,0.593559 -0.31855,1.143949 -0.378302,1.223091 -0.05975,0.07914 -0.184163,0.512175 -0.276467,0.9623 -0.137864,0.672298 -0.131087,0.890653 0.03796,1.22309 0.248421,0.488518 0.21234,0.587158 -0.655857,1.792958 -0.582234,0.80864 -0.762043,0.961143 -1.223091,1.037348 -0.685258,0.113307 -1.860279,0.08829 -3.7781,-0.08038 z"
     id="path3803"
     inkscape:connector-curvature="0"
     transform="translate(188.08627,13.98938)" />
  <path
     style="fill:#ececec;stroke-width:0.14389297"
     d="m 31.955218,63.399243 c 0,-0.07914 0.06857,-0.143893 0.152385,-0.143893 0.08381,0 0.112366,0.06475 0.06345,0.143893 -0.04891,0.07914 -0.117485,0.143893 -0.152385,0.143893 -0.0349,0 -0.06345,-0.06475 -0.06345,-0.143893 z"
     id="path3805"
     inkscape:connector-curvature="0"
     transform="translate(188.08627,13.98938)" />
  <path
     style="fill:#ececec;stroke-width:0.14389297"
     d="m 34.041666,87.277671 c -2.374234,-0.05306 -4.446293,-0.133861 -4.604575,-0.179559 -0.158283,-0.0457 -0.482042,-0.125237 -0.719465,-0.176752 -0.430721,-0.09346 -0.430109,-0.09426 0.275784,-0.363593 0.389105,-0.14846 0.766739,-0.329203 0.839186,-0.40165 0.0797,-0.0797 -0.242144,-0.6717 -0.81495,-1.499004 -1.195327,-1.72641 -1.515963,-2.433307 -1.51995,-3.350996 -0.0046,-1.061161 0.536981,-1.827936 2.090369,-2.959502 1.503071,-1.094913 2.22326,-1.696451 2.22326,-1.856978 0,-0.06487 -0.16188,-0.310329 -0.359733,-0.545463 -0.397378,-0.472258 -0.495942,-1.505534 -0.198998,-2.086176 0.211664,-0.413887 0.711597,-0.810726 1.026383,-0.814725 0.191248,-0.0024 0.251813,-0.12433 0.251813,-0.506826 0,-0.276994 -0.04914,-0.503625 -0.109199,-0.503625 -0.06006,0 -0.108622,-0.987466 -0.107919,-2.194368 0.0012,-2.105544 0.0177,-2.229315 0.406963,-3.057726 0.223127,-0.474847 0.414974,-0.976673 0.426327,-1.11517 0.01135,-0.138497 0.07543,-0.251813 0.142406,-0.251813 0.06697,0 0.08174,-0.06475 0.03283,-0.143893 -0.04891,-0.07914 -0.02922,-0.143893 0.04376,-0.143893 0.07298,0 0.254092,-0.372323 0.402476,-0.827384 0.282517,-0.866419 0.299714,-1.550064 0.178263,-7.086729 -0.04727,-2.15499 -0.03622,-2.257424 0.327022,-3.031954 0.2821,-0.601509 0.503046,-0.861926 0.885104,-1.043224 0.280037,-0.132886 0.580312,-0.241612 0.667278,-0.241612 0.08697,0 0.15812,-0.06857 0.15812,-0.152385 0,-0.08381 0.06475,-0.112366 0.143893,-0.06345 0.220974,0.136569 0.175904,-0.09653 -0.224181,-1.159457 -0.432101,-1.147987 -1.214749,-4.269216 -1.214749,-4.844465 0,-0.219623 -0.04856,-0.399821 -0.10792,-0.40044 -0.05935,-6.18e-4 -0.120528,-0.339372 -0.135938,-0.752786 -0.01541,-0.413414 -0.09675,-0.774574 -0.180763,-0.802577 -0.08401,-0.028 -0.117586,-0.1078 -0.07462,-0.177328 0.04297,-0.06953 -0.02376,-0.519595 -0.148281,-1.000151 -0.124525,-0.480556 -0.186605,-0.938141 -0.137957,-1.016856 0.119618,-0.193546 1.008764,-0.01973 1.720779,0.336393 0.316565,0.158332 1.506709,0.832649 2.644765,1.498482 2.462986,1.440998 3.379254,1.915948 3.696232,1.915948 0.291455,0 0.236784,-0.757827 -0.155797,-2.159621 -0.3022,-1.079068 -0.224486,-1.617467 0.281305,-1.948874 0.57431,-0.376302 1.116196,0.0127 1.662375,1.193364 0.860752,1.860673 1.110498,2.269532 1.582908,2.591372 0.625704,0.426276 1.046716,0.408303 2.087436,-0.08911 0.974875,-0.465946 1.228436,-0.708974 2.194203,-2.103058 0.899368,-1.298236 1.291086,-1.59073 1.812316,-1.353242 0.521171,0.237461 0.600328,0.660016 0.389327,2.078276 -0.09762,0.656141 -0.133296,1.332217 -0.07928,1.50239 0.08636,0.272095 0.167282,0.297734 0.671067,0.21262 0.736121,-0.124366 2.070154,-0.12373 2.980115,0.0014 0.804298,0.110619 0.898256,0.04946 1.690824,-1.100657 0.49932,-0.724578 1.441203,-1.271062 2.190709,-1.271062 0.852509,0 1.418053,0.352951 1.851237,1.155343 0.785128,1.454298 0.703316,1.423285 1.891894,0.717164 0.57021,-0.338756 1.068132,-0.584534 1.106492,-0.546174 0.03836,0.03836 -0.05949,0.354583 -0.217437,0.702717 -0.240003,0.528984 -0.287701,0.946188 -0.290343,2.539552 -0.0017,1.04862 0.0454,1.906925 0.10476,1.907344 0.05936,4.18e-4 0.126996,0.412791 0.150311,0.916381 l 0.04239,0.915617 -0.733194,0.07045 c -0.526523,0.05059 -0.903512,0.198432 -1.337427,0.524483 -1.474128,1.107683 -2.239163,1.276129 -4.129613,0.909264 -0.514418,-0.09983 -1.906582,-0.221499 -3.093699,-0.270378 -1.947992,-0.08021 -2.200577,-0.120859 -2.591118,-0.417019 -0.579937,-0.439784 -1.939134,-1.063587 -2.321242,-1.065333 -0.240966,-0.0011 -0.415623,0.225069 -0.804537,1.041819 -0.273214,0.573773 -0.960297,1.745484 -1.526851,2.603803 -1.007396,1.526187 -1.117033,1.826726 -1.031196,2.826771 0.04452,0.518685 0.450761,1.021651 1.283724,1.589381 0.402225,0.274149 0.731444,0.541514 0.731598,0.594143 1.44e-4,0.05263 -0.291106,0.352176 -0.647241,0.665659 -0.356135,0.313484 -0.647518,0.610369 -0.647518,0.659748 0,0.04938 1.214097,0.09132 2.697993,0.09321 1.483896,0.0019 2.949327,0.06174 3.256512,0.133006 0.307187,0.07127 0.90551,0.368556 1.329609,0.660643 l 0.771089,0.53107 0.948393,-0.17895 c 0.60722,-0.114573 1.319475,-0.141141 1.97993,-0.07385 0.567345,0.0578 1.274356,0.114691 1.571136,0.126418 l 0.539598,0.02132 v 0.821206 0.821204 l -1.43893,0.444038 c -0.791411,0.244221 -1.438929,0.50983 -1.438929,0.590243 0,0.08041 -0.06285,0.107363 -0.139667,0.05989 -0.175,-0.108156 -0.756598,0.190999 -2.272354,1.168827 -0.654433,0.422182 -1.43167,0.890661 -1.72719,1.041067 -0.754336,0.383919 -3.574312,1.149594 -4.350475,1.181233 -1.188721,0.04846 -1.151058,0.07591 -1.151946,-0.839638 -4.32e-4,-0.455062 -0.06758,-1.067819 -0.149193,-1.361684 -0.12408,-0.446766 -0.235922,-0.558608 -0.682689,-0.682689 -1.135155,-0.315266 -2.47996,-0.10538 -2.473492,0.386042 0.0071,0.541396 0.800255,1.697386 1.545561,2.252663 l 0.757512,0.56437 -1.117244,0.711334 c -1.279638,0.814726 -1.84821,1.310594 -2.137342,1.864035 -0.212006,0.405812 -0.282213,1.553685 -0.09507,1.554418 0.05936,2.88e-4 0.113303,0.239451 0.119882,0.531596 0.0066,0.292144 0.08792,0.556491 0.180762,0.587439 0.09284,0.03095 0.136379,0.108727 0.09675,0.172845 -0.03963,0.06412 0.103154,0.560414 0.31729,1.102881 0.346706,0.878295 0.389361,1.175385 0.38954,2.713017 1.44e-4,1.245697 -0.07181,1.967224 -0.258308,2.590073 -0.659352,2.202092 -0.73263,2.637779 -0.535383,3.183255 0.182303,0.504145 0.170197,0.541221 -0.494197,1.513595 -0.374591,0.548233 -0.797919,1.059321 -0.940725,1.135748 -0.27226,0.145711 -1.087905,0.144432 -8.120735,-0.01273 z"
     id="path3807"
     inkscape:connector-curvature="0"
     transform="translate(188.08627,13.98938)" />
  <path
     style="fill:#ececec;stroke-width:0.14389297"
     d="m 78.144862,88.84315 c -0.356135,-0.07602 -1.557474,-0.419241 -2.669643,-0.762708 -1.112168,-0.343465 -2.374828,-0.667249 -2.805913,-0.719518 -1.856359,-0.225086 -2.223312,-0.505195 -5.848236,-4.464183 -1.890747,-2.064993 -2.102468,-2.327283 -2.481768,-3.074532 -0.502129,-0.98923 -0.504245,-1.013401 -0.379739,-4.335956 0.179427,-4.788144 0.222493,-5.012978 1.124627,-5.871318 l 0.499583,-0.47533 -0.627537,-1.251386 c -1.221356,-2.435532 -1.471112,-3.983048 -0.911116,-5.645373 0.637701,-1.892985 1.913313,-3.291711 3.953013,-4.334532 1.382049,-0.70659 1.304086,-0.644074 1.103951,-0.885221 -0.08933,-0.107641 -0.187818,-0.449152 -0.218855,-0.758916 -0.03104,-0.309764 -0.381875,-1.404981 -0.779639,-2.433816 -0.8723,-2.256246 -1.031573,-2.82672 -1.06993,-3.832215 -0.06366,-1.66881 0.800572,-2.377751 2.374211,-1.947596 0.413012,0.112896 1.268945,0.345312 1.902075,0.51648 1.264774,0.341933 2.496396,0.36643 3.506731,0.06975 0.601739,-0.176699 1.146875,-0.513637 2.896506,-1.790272 1.350212,-0.985195 2.763631,-1.223506 3.898571,-0.657324 0.560473,0.279601 0.562111,0.279697 0.562111,0.03294 0,-0.370565 0.924459,-1.208457 1.510876,-1.369395 1.000826,-0.27467 2.447736,-0.138316 3.705244,0.349176 0.158064,0.06128 0.251813,0.03026 0.251813,-0.0833 0,-0.422108 0.80122,-1.768035 1.31356,-2.206578 0.657588,-0.56287 1.39355,-0.808938 2.419447,-0.808938 0.629472,0 0.814514,0.0647 1.152952,0.40314 0.336842,0.336842 0.420182,0.572822 0.506759,1.434927 l 0.103619,1.031786 0.525397,-0.225896 c 1.231578,-0.529523 2.158207,-0.786027 2.89963,-0.802661 1.244538,-0.02792 1.933719,0.418753 4.186478,2.71336 2.04472,2.082701 2.23342,2.382738 2.52007,4.006975 0.14301,0.810339 0.43639,1.458335 0.7642,1.687942 0.26993,0.189067 0.2416,0.273061 -0.76753,2.275938 -0.5763,1.143794 -1.23568,2.43576 -1.46531,2.871037 -0.22962,0.435276 -0.4294,0.81411 -0.44395,0.841853 -0.0146,0.02774 -0.15202,-0.06939 -0.30547,-0.21584 -0.51447,-0.490991 -0.72868,-1.108763 -0.7014,-2.02277 0.0312,-1.045212 -0.19669,-1.37744 -1.097957,-1.60069 -1.304971,-0.323252 -3.233554,0.501475 -3.275395,1.400668 -0.01972,0.423771 -0.136628,0.944047 -0.374652,1.667303 -0.287283,0.872936 -1.69738,2.375668 -2.229191,2.375637 -0.327518,-2e-5 -0.335492,-0.03246 -0.344851,-1.402956 -0.0061,-0.898931 -0.102715,-1.72353 -0.268828,-2.29533 -0.258321,-0.889206 -0.261763,-2.671218 -0.0083,-4.294372 0.0796,-0.50977 0.02545,-0.67981 -0.435339,-1.366983 -1.013271,-1.51107 -1.304999,-1.688646 -3.156296,-1.921244 -1.642874,-0.206411 -2.930057,-0.07 -3.722415,0.39449 -0.759466,0.445207 -1.993,1.741686 -2.896447,3.044247 -0.786865,1.134474 -1.609348,1.942555 -1.977179,1.942555 -0.336206,0 -0.979621,0.304275 -0.979621,0.463268 0,0.07111 -0.05786,0.09353 -0.128575,0.04982 -0.07072,-0.04371 -0.467956,0.239164 -0.882755,0.628597 -0.528904,0.496562 -0.726895,0.779163 -0.662836,0.946099 0.05024,0.13092 0.09134,0.336797 0.09134,0.457503 0,0.127338 0.08325,0.187522 0.198304,0.143368 0.109068,-0.04185 0.270948,-0.0035 0.359733,0.08533 0.119309,0.119309 0.161428,0.114729 0.161428,-0.01755 0,-0.09844 0.08094,-0.165592 0.179866,-0.149231 0.259849,0.04298 0.971277,-0.173776 0.971277,-0.295921 0,-0.05703 0.32376,-0.255337 0.719465,-0.440676 0.395706,-0.185339 0.719465,-0.383778 0.719465,-0.440975 0,-0.09233 1.136287,0.124031 1.280102,0.24374 0.03136,0.0261 -0.195274,0.324257 -0.503625,0.66257 -0.30835,0.338313 -0.864456,1.003343 -1.235791,1.477846 -0.371333,0.474503 -1.548107,1.963513 -2.615051,3.308912 -2.395438,3.020609 -2.913697,3.937335 -3.14392,5.561154 -0.394886,2.785224 -0.08156,3.660769 1.757603,4.911335 0.6727,0.457414 1.399512,1.007805 1.615138,1.22309 l 0.392048,0.391431 -0.542924,0.575572 c -0.812823,0.8617 -1.032583,1.237526 -1.032583,1.765879 0,0.612817 0.278027,1.143897 0.884709,1.689951 1.273003,1.145784 2.635435,2.266447 3.151352,2.592131 0.803225,0.507053 3.22171,1.058723 5.121643,1.168276 l 1.603323,0.09245 -0.103226,-0.560646 c -0.118175,-0.641824 -0.292059,-0.995158 -0.94389,-1.917977 -0.255304,-0.361443 -0.716138,-1.110432 -1.024074,-1.66442 -0.496143,-0.892578 -0.558658,-1.113733 -0.549114,-1.942555 0.01795,-1.558936 0.507666,-2.27153 2.723196,-3.962575 1.842661,-1.406443 2.242102,-1.872614 2.149894,-2.509047 -0.04042,-0.278953 -0.02266,-0.572722 0.03946,-0.65282 0.06212,-0.0801 0.751375,-0.400684 1.531683,-0.712415 1.257928,-0.502536 1.551519,-0.565806 2.590074,-0.558171 0.644232,0.0047 1.624592,0.07902 2.17858,0.165081 1.818991,0.282567 3.134957,0.355111 3.018319,0.166385 -0.07722,-0.124942 0.04275,-0.144835 0.454203,-0.07532 0.3835,0.06479 0.85056,0.0038 1.48693,-0.1943 0.5103,-0.158822 0.94851,-0.268058 0.97382,-0.242749 0.14482,0.144817 -1.96898,1.859713 -3.121779,2.532659 -2.234919,1.30463 -2.680616,1.915595 -3.096791,4.245102 -0.127202,0.712001 -0.325491,1.781664 -0.440641,2.377031 -0.362441,1.873931 -0.209843,2.898504 0.698746,4.691518 0.60895,1.201708 0.861937,2.421296 0.760543,3.666409 -0.133524,1.639676 -0.44975,2.561463 -1.070499,3.120457 -1.881321,1.694157 -3.310856,2.040903 -4.800692,1.164447 -0.418975,-0.246479 -0.794147,-0.496663 -0.833718,-0.555965 -0.03957,-0.0593 -0.719465,-0.54448 -1.510876,-1.078173 -1.992158,-1.343422 -2.590836,-1.856239 -2.810361,-2.407305 -0.104013,-0.261098 -0.205056,-0.496444 -0.22454,-0.522992 -0.01949,-0.02655 -0.264091,0.06024 -0.54357,0.19286 -0.567011,0.269064 -0.959126,0.74042 -1.675266,2.013804 -0.692742,1.231782 -2.053398,2.553245 -2.937822,2.853197 -0.772186,0.26189 -1.801785,0.288013 -2.816253,0.07146 z"
     id="path3809"
     inkscape:connector-curvature="0"
     transform="translate(188.08627,13.98938)" />
  <path
     style="fill:#ececec;stroke-width:0.14389297"
     d="m 76.64522,88.362565 c -0.943515,-0.268356 -1.7691,-0.454783 -1.834635,-0.414281 -0.06553,0.0405 -0.119155,-0.0019 -0.119155,-0.09414 0,-0.09228 -0.09505,-0.131305 -0.211231,-0.08672 -0.116177,0.04458 -0.252231,0.01472 -0.302341,-0.06636 -0.05011,-0.08108 -0.177504,-0.114265 -0.283097,-0.07375 -0.105594,0.04052 -0.21236,0.0247 -0.237258,-0.03515 -0.0249,-0.05986 -0.575039,-0.211936 -1.222535,-0.337959 -0.803949,-0.156472 -1.375442,-0.365479 -1.802222,-0.659112 -1.229245,-0.845742 -5.668732,-5.697305 -6.271393,-6.853505 -0.37379,-0.717114 -0.380026,-0.775519 -0.35448,-3.320029 0.02579,-2.568691 0.212296,-5.203398 0.407466,-5.756091 0.05582,-0.158078 0.353098,-0.550684 0.660617,-0.872461 L 65.63408,69.20796 64.985466,67.81048 c -0.85166,-1.834952 -1.11393,-2.779994 -1.102755,-3.973567 0.02217,-2.367755 1.514026,-4.46233 4.196166,-5.891433 1.023216,-0.545192 1.157395,-0.661514 1.072995,-0.930186 -0.05306,-0.16889 -0.164352,-0.614645 -0.247326,-0.990565 -0.08297,-0.375921 -0.210855,-0.683492 -0.28418,-0.683492 -0.07333,0 -0.09946,-0.05478 -0.05808,-0.121731 0.04138,-0.06695 -0.254039,-1.022042 -0.656485,-2.122422 -0.602197,-1.646547 -0.734996,-2.181078 -0.750233,-3.019778 -0.02065,-1.136355 0.179914,-1.667136 0.72353,-1.914824 0.527023,-0.240127 0.905096,-0.201161 2.804572,0.289053 1.45619,0.375812 1.929565,0.438384 2.909434,0.384577 1.329818,-0.07302 1.880727,-0.303023 3.455593,-1.442681 1.906467,-1.379622 3.276288,-1.731043 4.495997,-1.153424 0.413809,0.195967 0.54559,0.210744 0.594218,0.06663 0.126386,-0.374571 0.764668,-1.009979 1.242148,-1.236558 0.628561,-0.298272 2.384609,-0.308133 3.338542,-0.01875 0.388498,0.117855 0.750177,0.214983 0.803731,0.215839 0.05355,8.64e-4 0.253649,-0.338389 0.444654,-0.75388 0.663106,-1.442451 1.35795,-2.019336 2.735122,-2.270802 1.445641,-0.263968 2.045106,0.191568 2.260872,1.718043 0.07051,0.498807 0.1533,0.932029 0.183986,0.962715 0.03069,0.03069 0.601215,-0.147255 1.267844,-0.395424 1.470972,-0.547605 2.796558,-0.624631 3.586285,-0.208387 0.709966,0.374206 4.366654,4.068372 4.717644,4.765996 0.16025,0.318511 0.3716,0.986975 0.46968,1.485476 0.0981,0.4985 0.33083,1.131113 0.51725,1.405807 0.18641,0.274694 0.33893,0.593244 0.33893,0.707889 0,0.341292 -2.64704,5.539487 -2.79561,5.489962 -0.38354,-0.127845 -0.70012,-0.856415 -0.80309,-1.848206 -0.13346,-1.285531 -0.20726,-1.478438 -0.641241,-1.676173 -0.68522,-0.312207 -1.341524,-0.345447 -2.154465,-0.109119 -1.124689,0.326956 -1.629795,0.82553 -1.806716,1.783353 -0.272149,1.473374 -1.185856,2.902231 -2.186915,3.419899 -0.506181,0.261756 -0.499261,0.280043 -0.604309,-1.59717 -0.04429,-0.791411 -0.155317,-1.697937 -0.246733,-2.014502 -0.111171,-0.384975 -0.138782,-1.295054 -0.08338,-2.748298 0.0823,-2.158951 0.08047,-2.176285 -0.288664,-2.733966 -0.579536,-0.87555 -1.221287,-1.510617 -1.77092,-1.752471 -0.636647,-0.280143 -3.843974,-0.370838 -4.671977,-0.132111 -0.760217,0.219184 -2.269689,1.653667 -3.633853,3.453332 -0.770216,1.016102 -1.217007,1.47322 -1.597802,1.634734 -1.216204,0.515854 -1.569813,0.727316 -2.219351,1.327193 -0.668065,0.616989 -0.822044,1.013791 -0.556192,1.433291 0.197061,0.310951 1.418301,0.188269 1.887202,-0.189582 0.673166,-0.542453 1.606417,-0.917718 2.087951,-0.839576 0.276168,0.04482 0.502123,0.122687 0.502123,0.173047 0,0.05036 -0.280177,0.414211 -0.622615,0.808558 -0.66617,0.767151 -4.697455,5.873878 -5.251591,6.652578 -0.183033,0.257209 -0.279815,0.469621 -0.21507,0.472028 0.06474,0.0024 0.003,0.07114 -0.137122,0.152737 -0.140161,0.0816 -0.21728,0.209132 -0.171374,0.28341 0.04591,0.07428 0.02275,0.135049 -0.05146,0.135049 -0.143499,0 -0.549538,0.861231 -0.491841,1.043224 0.01882,0.05936 -0.02595,0.10792 -0.09948,0.10792 -0.294538,0 -0.737973,3.486275 -0.464902,3.655043 0.08489,0.05246 0.118176,0.189646 0.07397,0.304847 -0.170122,0.443331 0.652836,1.473477 1.926385,2.411373 1.939233,1.428132 1.894807,1.328518 1.042188,2.336899 -0.643659,0.761249 -0.717234,0.919348 -0.717234,1.541199 0,0.614406 0.06931,0.768711 0.611545,1.361567 1.102771,1.205714 3.268902,2.899841 4.110274,3.214638 0.435639,0.162994 0.874674,0.264653 0.975635,0.225911 0.100961,-0.03874 0.205801,-0.0037 0.23298,0.07781 0.02718,0.08153 0.322379,0.158837 0.656,0.171782 0.333623,0.01295 0.606953,0.07918 0.6074,0.1472 4.32e-4,0.06801 0.227446,0.0972 0.50444,0.06487 0.276994,-0.03234 0.503625,-2.88e-4 0.503625,0.07129 0,0.07155 0.453263,0.101678 1.007251,0.06695 0.553988,-0.03472 1.007251,-0.0091 1.007251,0.05686 0,0.06599 0.129504,0.119989 0.287786,0.119989 0.597784,0 0.241681,-1.125291 -0.920161,-2.907713 -1.057884,-1.622937 -1.375106,-2.344523 -1.378967,-3.136742 -0.0075,-1.536529 0.470835,-2.258375 2.672127,-4.032558 1.920525,-1.547893 2.217074,-1.909545 2.217074,-2.7038 0,-0.551799 0.02874,-0.588408 0.647519,-0.824721 0.356135,-0.136009 0.647518,-0.307066 0.647518,-0.380125 0,-0.07306 0.05035,-0.101715 0.1119,-0.06368 0.06154,0.03804 0.466243,-0.05316 0.899331,-0.20265 0.974206,-0.33628 1.985739,-0.347762 4.303731,-0.04886 1.459256,0.188173 2.059962,0.203029 3.159459,0.07813 0.74669,-0.08482 1.39554,-0.205564 1.44188,-0.268323 0.0846,-0.114519 0.87567,-0.216637 0.87567,-0.113032 0,0.107214 -2.38408,1.910202 -3.12967,2.366848 -0.415491,0.254472 -0.755438,0.525695 -0.755438,0.602719 0,0.07702 -0.05367,0.106872 -0.119269,0.06633 -0.310981,-0.192197 -1.76085,1.438184 -1.505779,1.693255 0.0496,0.0496 0.01714,0.09019 -0.07214,0.09019 -0.183092,0 -0.517134,1.088133 -0.394805,1.286066 0.04361,0.07056 0.02657,0.150002 -0.03786,0.176547 -0.06443,0.02654 -0.259484,0.857661 -0.43345,1.846925 -0.403124,2.292378 -0.356816,3.483445 0.184614,4.748468 1.005906,2.350246 1.122289,2.841308 1.040147,4.388736 -0.100079,1.885339 -0.296519,2.437917 -1.164036,3.274394 -1.387788,1.338134 -3.077194,1.811273 -4.260387,1.193172 -0.500202,-0.261305 -1.986671,-1.292935 -4.00077,-2.776585 -0.902996,-0.665177 -1.477758,-1.299428 -1.655936,-1.827333 -0.0267,-0.07912 -0.241303,-0.05546 -0.511268,0.05636 -0.510202,0.211334 -1.197768,0.993929 -1.816792,2.067899 -0.606452,1.052154 -1.724286,2.193487 -2.552587,2.606247 -1.082498,0.539432 -2.393799,0.501051 -4.632121,-0.13558 z"
     id="path3811"
     inkscape:connector-curvature="0"
     transform="translate(188.08627,13.98938)" />
  <path
     style="fill:#ececec;stroke-width:0.14389297"
     d="m 76.633985,88.37045 c -0.949693,-0.264422 -1.775279,-0.451012 -1.834635,-0.414645 -0.05936,0.03637 -0.10792,-0.0094 -0.10792,-0.101659 0,-0.09228 -0.09505,-0.131305 -0.211231,-0.08672 -0.116177,0.04458 -0.250564,0.01742 -0.298636,-0.06037 -0.04807,-0.07778 -0.163463,-0.129495 -0.256421,-0.114914 -0.09296,0.01458 -0.266144,-0.0142 -0.384855,-0.06395 -0.118712,-0.04976 -0.684513,-0.185828 -1.257336,-0.30238 -0.663283,-0.134958 -1.264203,-0.367442 -1.654769,-0.640197 -1.31224,-0.916412 -5.641936,-5.643285 -6.261718,-6.836126 -0.377619,-0.726772 -0.383465,-0.781614 -0.389219,-3.651607 -0.0032,-1.602563 0.04272,-2.913788 0.102079,-2.913832 0.05936,-4.3e-5 0.109502,-0.340027 0.111437,-0.755518 0.0059,-1.275724 0.242743,-1.992445 0.870451,-2.634559 l 0.570981,-0.584086 -0.638083,-1.365461 c -0.84164,-1.801059 -1.122563,-2.815093 -1.111361,-4.011619 0.02204,-2.353638 1.435044,-4.356524 4.133526,-5.859124 0.862669,-0.48036 1.191943,-0.737995 1.134505,-0.887675 -0.04451,-0.115988 -0.146792,-0.504799 -0.227296,-0.864023 -0.0805,-0.359224 -0.215742,-0.736722 -0.30053,-0.838885 -0.08479,-0.102163 -0.117411,-0.185751 -0.0725,-0.185751 0.04491,0 -0.230082,-0.890338 -0.611103,-1.978528 -0.75628,-2.159927 -0.944646,-3.078575 -0.803073,-3.916537 0.185729,-1.099319 0.903556,-1.460049 2.295912,-1.153764 0.478776,0.105319 1.016193,0.196534 1.194261,0.202701 0.178067,0.0062 0.323759,0.05441 0.323759,0.107208 0,0.158531 1.395277,0.407629 2.283253,0.407629 1.23364,0 2.109656,-0.323502 3.547086,-1.309895 2.288284,-1.570265 3.432239,-1.89169 4.759233,-1.337237 0.390673,0.163234 0.568209,0.182725 0.606907,0.06663 0.118095,-0.35428 0.767859,-0.994101 1.234364,-1.215472 0.637911,-0.302709 2.378238,-0.306513 3.38546,-0.0074 0.417876,0.124096 0.775286,0.205036 0.794246,0.179866 0.01896,-0.02517 0.174761,-0.342039 0.346225,-0.704154 0.681827,-1.439949 1.589388,-2.142406 3.049735,-2.36051 1.244487,-0.185865 1.778041,0.291808 2.022673,1.810834 0.08087,0.502149 0.160824,0.926788 0.177679,0.943643 0.01686,0.01685 0.579676,-0.168235 1.250714,-0.41131 1.484873,-0.537878 2.814787,-0.612475 3.594304,-0.201611 0.665036,0.350523 4.353741,4.046608 4.681141,4.69051 0.14084,0.276994 0.37659,0.989264 0.52388,1.582822 0.14729,0.593559 0.3962,1.254643 0.55314,1.469077 0.15694,0.214433 0.28535,0.489177 0.28535,0.610542 0,0.349601 -2.64371,5.552812 -2.79561,5.502177 -0.38758,-0.129191 -0.69303,-0.850564 -0.81077,-1.914741 -0.10384,-0.938541 -0.187,-1.187904 -0.4816,-1.444133 -0.403994,-0.351378 -1.553996,-0.607112 -1.635159,-0.363622 -0.02815,0.08445 -0.146565,0.116933 -0.263147,0.0722 -0.329897,-0.126594 -1.460845,0.366958 -1.784914,0.778945 -0.182493,0.232002 -0.258174,0.477148 -0.201971,0.654228 0.05357,0.168787 0.03278,0.247907 -0.05145,0.195845 -0.07915,-0.04892 -0.18258,0.170565 -0.235068,0.498809 -0.178768,1.117953 -1.211202,2.61795 -2.128352,3.092228 -0.504996,0.261143 -0.496608,0.28293 -0.612904,-1.591803 -0.04891,-0.788458 -0.144484,-1.468354 -0.212386,-1.510876 -0.0679,-0.04252 -0.117962,-1.32117 -0.111246,-2.841438 l 0.01222,-2.764123 -0.640542,-0.833201 c -0.428948,-0.557963 -0.875933,-0.950047 -1.353112,-1.186918 -0.652056,-0.323679 -0.878005,-0.353512 -2.660613,-0.351288 -1.594251,0.002 -2.037086,0.04942 -2.438317,0.261191 -0.760047,0.401144 -1.807353,1.450884 -3.135112,3.142401 -1.162274,1.480694 -1.266015,1.571951 -2.405003,2.115567 -1.677225,0.800507 -2.527064,1.781718 -2.111553,2.43797 0.21164,0.334264 1.341902,0.08125 2.455187,-0.54961 0.820687,-0.465054 1.098424,-0.554658 1.511461,-0.487631 0.278312,0.04516 0.506022,0.129279 0.506022,0.186923 0,0.05764 -0.249184,0.389119 -0.553744,0.736611 -1.116215,1.273567 -5.211112,6.543153 -5.382936,6.927122 -0.0974,0.217638 -0.226028,0.395705 -0.28585,0.395705 -0.05982,0 -0.108767,0.09713 -0.108767,0.21584 0,0.118712 -0.0569,0.215839 -0.126436,0.215839 -0.06954,0 -0.206635,0.210444 -0.304656,0.467652 -0.09802,0.257209 -0.264931,0.665739 -0.370909,0.907843 -0.289874,0.662208 -0.544876,3.007243 -0.363802,3.345582 0.08164,0.152537 0.112417,0.313348 0.0684,0.357361 -0.296131,0.29613 0.92727,1.725434 2.392435,2.795086 0.435276,0.317778 0.909657,0.710275 1.054178,0.872216 0.256806,0.28776 0.251671,0.306964 -0.226391,0.846577 -1.056535,1.192568 -1.227553,1.857486 -0.700184,2.722311 0.302736,0.496454 1.827685,1.900969 3.085239,2.84158 0.845389,0.632325 2.132638,1.196362 2.380599,1.043115 0.07573,-0.04681 0.159416,-0.02116 0.185961,0.05699 0.02655,0.07815 0.313798,0.165891 0.638339,0.194975 0.324542,0.02908 0.665575,0.09954 0.757849,0.156568 0.09228,0.05703 0.31238,0.08957 0.489121,0.07231 0.176742,-0.01726 0.432659,0.01679 0.568705,0.07565 0.136047,0.05886 0.606722,0.07666 1.045947,0.03954 0.439224,-0.03712 0.833562,-0.01089 0.876305,0.05826 0.04275,0.06916 0.17823,0.125748 0.301079,0.125748 0.179675,0 0.203807,-0.104227 0.123386,-0.532906 -0.120898,-0.644446 -0.447066,-1.300465 -1.309221,-2.63322 -0.946082,-1.462492 -1.206126,-2.113596 -1.209746,-3.028993 -0.0055,-1.389455 0.450207,-2.061348 2.590266,-3.819115 1.689238,-1.387481 2.09715,-1.810387 2.033994,-2.108749 -0.01256,-0.05936 0.04191,-0.10792 0.121048,-0.10792 0.07914,0 0.143893,-0.253651 0.143893,-0.56367 0,-0.535491 0.03237,-0.576034 0.647519,-0.810961 0.356135,-0.136009 0.647518,-0.314036 0.647518,-0.395615 0,-0.08158 0.03543,-0.112898 0.07873,-0.0696 0.0433,0.0433 0.469956,-0.04303 0.948123,-0.191857 1.06188,-0.330495 1.930922,-0.338642 4.36333,-0.04091 1.542744,0.188837 2.106011,0.200301 3.167577,0.06447 0.71015,-0.09087 1.32529,-0.210409 1.36699,-0.265651 0.12429,-0.164667 0.90438,-0.205032 0.80336,-0.04157 -0.0496,0.0802 -0.75156,0.642708 -1.55998,1.250009 -0.80842,0.6073 -1.491574,1.160601 -1.518119,1.229558 -0.02654,0.06896 -0.105123,0.09023 -0.174619,0.04728 -0.06949,-0.04295 -0.258218,0.05377 -0.419389,0.214943 -0.161168,0.161169 -0.295187,0.24447 -0.297821,0.185114 -0.0026,-0.05935 -0.124097,0.03502 -0.269923,0.209722 -0.145824,0.174702 -0.300781,0.281994 -0.344347,0.238427 -0.115535,-0.115534 -0.972827,1.111519 -0.880709,1.26057 0.0428,0.06925 0.0195,0.125917 -0.05179,0.125917 -0.153961,0 -0.518924,1.14313 -0.402223,1.259833 0.04437,0.04437 0.02459,0.151381 -0.04395,0.237803 -0.175263,0.220981 -0.628463,2.805262 -0.53477,3.049421 0.04251,0.110776 0.01981,0.201411 -0.05044,0.201411 -0.07025,0 -0.10133,0.556984 -0.06907,1.237743 0.04952,1.045074 0.147594,1.445908 0.630011,2.575037 0.802334,1.877918 0.92264,2.459097 0.828366,4.001715 -0.108865,1.781355 -0.314083,2.337648 -1.165056,3.158173 -1.38882,1.33913 -3.079328,1.812025 -4.260387,1.191783 -0.613137,-0.321992 -4.171433,-2.836468 -4.82083,-3.406647 -0.257261,-0.225877 -0.548333,-0.605241 -0.646828,-0.843029 -0.09849,-0.237787 -0.252167,-0.432099 -0.341491,-0.431802 -0.467152,0.0016 -1.17244,0.693981 -2.019442,1.982636 -2.133012,3.245234 -3.538066,3.76106 -7.352118,2.699123 z"
     id="path3813"
     inkscape:connector-curvature="0"
     transform="translate(188.08627,13.98938)" />
  <path
     style="fill:#ececec;stroke-width:0.14389297"
     d="m 78.108779,88.859266 c -0.05217,-0.117792 -2.72424,-0.854324 -3.099408,-0.854324 -0.174867,0 -0.317941,-0.07168 -0.317941,-0.159288 0,-0.08761 -0.09505,-0.122813 -0.211231,-0.07823 -0.116177,0.04458 -0.246956,0.02325 -0.290619,-0.04739 -0.04366,-0.07065 -0.191429,-0.130915 -0.328367,-0.133924 -0.495146,-0.01088 -0.96994,-0.08647 -1.040391,-0.16563 -0.03957,-0.04446 -0.444354,-0.162442 -0.899518,-0.262174 -1.001817,-0.21951 -1.663285,-0.719426 -3.564881,-2.69421 -2.110051,-2.191263 -3.588479,-3.941029 -3.975944,-4.705653 -0.243138,-0.479811 -0.384956,-1.070044 -0.458417,-1.907889 -0.0585,-0.667233 -0.0613,-1.213151 -0.0062,-1.213151 0.05508,0 0.08755,-0.781621 0.07216,-1.736934 -0.0154,-0.955314 0.02313,-1.768533 0.08563,-1.807154 0.06249,-0.03862 0.11398,-0.406347 0.114421,-0.817167 0.0012,-1.131098 0.249727,-1.833469 0.878242,-2.482174 l 0.565905,-0.584086 -0.638083,-1.365461 c -1.444986,-3.092185 -1.489305,-4.850779 -0.178611,-7.087309 0.443758,-0.757216 1.738445,-1.968745 2.659132,-2.488334 1.742834,-0.983569 1.731592,-0.971857 1.557793,-1.622996 -0.08589,-0.321794 -0.205509,-0.58508 -0.265817,-0.58508 -0.06031,0 -0.07206,-0.09795 -0.02612,-0.217672 0.04594,-0.11972 0.01537,-0.299798 -0.06794,-0.400175 -0.08331,-0.100377 -0.183491,-0.359115 -0.222633,-0.574974 -0.118928,-0.65585 -0.245873,-0.965574 -0.395753,-0.965574 -0.07848,0 -0.107794,-0.05646 -0.06515,-0.125467 0.04265,-0.06901 -0.116731,-0.700205 -0.354176,-1.402663 -0.526644,-1.558016 -0.652986,-2.522252 -0.435973,-3.327297 0.271233,-1.006176 0.988242,-1.229875 2.661418,-0.83033 0.468947,0.111982 0.906022,0.170605 0.971278,0.130275 0.06526,-0.04033 0.118647,-0.01369 0.118647,0.05919 0,0.172667 1.446251,0.460996 2.290313,0.456602 0.816339,-0.0042 1.789474,-0.220863 1.853369,-0.41255 0.02629,-0.07888 0.140206,-0.107965 0.253137,-0.06463 0.112932,0.04334 0.245037,-0.02468 0.293567,-0.15115 0.04853,-0.126468 0.137909,-0.199244 0.198618,-0.161724 0.06071,0.03752 0.577347,-0.25972 1.148084,-0.660533 1.982338,-1.392142 3.295652,-1.736797 4.577392,-1.201252 0.358643,0.14985 0.549714,0.171624 0.584713,0.06663 0.115651,-0.346957 0.769763,-0.988154 1.23165,-1.207333 0.637911,-0.302709 2.378238,-0.306513 3.38546,-0.0074 0.417876,0.124096 0.775286,0.205036 0.794246,0.179866 0.01896,-0.02517 0.172763,-0.337145 0.341787,-0.69328 0.684404,-1.442044 1.614958,-2.180936 2.979855,-2.366104 1.323306,-0.179527 1.834882,0.251377 2.102559,1.770997 0.08553,0.485591 0.224671,0.882893 0.309191,0.882893 0.08452,0 0.64418,-0.172111 1.243689,-0.382469 1.359315,-0.476963 2.721931,-0.528433 3.464249,-0.130857 0.694865,0.372162 4.119059,3.756727 4.561199,4.50841 0.1985,0.337479 0.47722,1.065755 0.61937,1.61839 0.14215,0.552635 0.39447,1.235306 0.5607,1.517047 0.16623,0.281741 0.30224,0.606364 0.30224,0.721385 0,0.181693 -2.50835,5.337579 -2.69042,5.53014 -0.0374,0.03957 -0.22152,-0.106375 -0.40911,-0.324326 -0.33192,-0.385634 -0.39165,-0.595531 -0.5713,-2.007733 -0.10603,-0.833409 -0.438591,-1.265326 -1.005696,-1.306142 -0.237423,-0.01709 -0.473707,-0.08907 -0.525077,-0.159957 -0.05137,-0.07089 -0.213248,-0.07712 -0.359732,-0.01386 -0.146483,0.06327 -0.367093,0.103134 -0.490242,0.0886 -0.319902,-0.03776 -1.286969,0.389197 -1.286969,0.568197 0,0.08275 -0.06191,0.112194 -0.137572,0.06543 -0.199306,-0.123179 -0.604802,0.560372 -0.497816,0.839175 0.04983,0.129863 0.02613,0.236115 -0.05267,0.236115 -0.0788,0 -0.188262,0.239808 -0.243248,0.532906 -0.203914,1.086959 -1.234441,2.549814 -2.118192,3.006819 -0.505063,0.261177 -0.498659,0.277217 -0.623375,-1.560995 -0.05235,-0.771514 -0.141825,-1.431587 -0.198844,-1.466827 -0.05702,-0.03524 -0.120764,-1.020927 -0.141653,-2.190415 -0.02089,-1.169489 -0.06915,-2.176777 -0.107247,-2.238417 -0.0381,-0.06164 -0.005,-0.112074 0.07359,-0.112074 0.132642,0 0.115528,-0.344633 -0.05469,-1.10132 -0.124062,-0.551509 -1.17738,-1.729109 -1.828602,-2.04436 -0.35362,-0.171184 -0.908877,-0.303698 -1.270079,-0.303106 -0.352975,5.75e-4 -0.738902,-0.0061 -0.857613,-0.01495 -0.118712,-0.0088 -0.783611,-0.0031 -1.477554,0.01258 -1.077047,0.02439 -1.340304,0.08106 -1.798662,0.387185 -0.841747,0.562177 -1.403184,1.141861 -2.812237,2.903634 -1.162757,1.453823 -1.408209,1.682828 -2.179535,2.033489 -1.714793,0.779581 -2.618138,1.658669 -2.438779,2.373294 0.0937,0.373342 0.129371,0.387557 0.756684,0.301573 0.629515,-0.08628 0.997934,-0.240996 2.227819,-0.935537 0.40801,-0.230412 0.67955,-0.287482 1.043224,-0.219257 0.270402,0.05073 0.491642,0.13579 0.491642,0.189027 0,0.05324 -0.404699,0.584508 -0.899331,1.180601 -1.46115,1.76087 -4.765283,6.01169 -4.999583,6.432045 -0.119096,0.213666 -0.248913,0.420861 -0.288484,0.460431 -0.211828,0.211828 -0.48931,0.740651 -0.95863,1.82695 -0.199833,0.462539 -0.492611,2.754247 -0.378111,2.959654 0.03375,0.06055 0.08634,0.383002 0.116876,0.716567 0.03053,0.333567 0.155614,0.679679 0.277957,0.769138 0.122344,0.08946 0.222443,0.195941 0.222443,0.236625 0,0.04068 0.226632,0.321394 0.503626,0.623801 0.276994,0.302408 0.503625,0.513865 0.503625,0.469907 0,-0.08062 0.57375,0.388732 1.616918,1.322694 l 0.56695,0.507598 -0.659352,0.800907 c -1.367909,1.661587 -1.10669,2.377737 1.692737,4.640764 1.386611,1.120922 2.267851,1.640317 2.929896,1.726857 0.21999,0.02876 0.497109,0.09286 0.615821,0.142447 0.118711,0.04959 0.410095,0.114342 0.647518,0.143893 0.237423,0.02955 0.528807,0.09318 0.647518,0.141404 0.118712,0.04822 0.345344,0.06505 0.503626,0.0374 0.158282,-0.02765 0.367025,0.01268 0.463873,0.08962 0.09685,0.07694 0.562766,0.110419 1.035371,0.07439 0.50119,-0.03821 0.922521,-0.0023 1.011029,0.08624 0.1064,0.1064 0.197876,0.105617 0.306115,-0.0026 0.262625,-0.262625 -0.08362,-1.169213 -1.034721,-2.709275 -1.209716,-1.958813 -1.415058,-2.449314 -1.418775,-3.389033 -0.0054,-1.375375 0.461327,-2.075554 2.520513,-3.780943 1.79265,-1.484651 2.368688,-2.204301 2.368688,-2.959234 0,-0.320309 0.121282,-0.450496 0.683492,-0.733676 0.37592,-0.189347 0.974875,-0.431765 1.33101,-0.538707 0.687388,-0.20641 3.453431,-0.45644 3.453431,-0.312164 0,0.04696 0.728458,0.162556 1.618796,0.256881 1.675224,0.177479 3.703483,0.02893 4.100943,-0.300351 0.0989,-0.08196 0.18086,-0.09252 0.18207,-0.02347 0.001,0.06905 0.0498,0.05344 0.10792,-0.03469 0.0597,-0.09043 0.22839,-0.116398 0.38731,-0.05962 0.23745,0.08484 0.0927,0.245274 -0.92364,1.023584 -0.66289,0.507638 -1.352251,1.0618 -1.531936,1.231474 -0.179683,0.169674 -0.362997,0.272198 -0.407364,0.22783 -0.04437,-0.04437 -0.08067,-0.0013 -0.08067,0.0957 0,0.097 -0.05495,0.14241 -0.122102,0.100905 -0.06715,-0.0415 -0.276079,0.06799 -0.464275,0.24332 -0.188195,0.175331 -0.39462,0.318784 -0.458718,0.318784 -0.0641,0 -0.176574,0.09713 -0.249942,0.215839 -0.07337,0.118712 -0.200509,0.21584 -0.282538,0.21584 -0.08203,0 -0.157845,0.06475 -0.168483,0.143893 -0.01063,0.07914 -0.140142,0.228505 -0.287786,0.331918 -0.147644,0.103414 -0.268444,0.283759 -0.268444,0.400769 0,0.117008 -0.09388,0.356155 -0.208623,0.531438 -0.114743,0.175283 -0.241031,0.545329 -0.280639,0.822323 -0.03961,0.276994 -0.174949,0.956888 -0.300756,1.510876 -0.386475,1.701834 -0.520169,4.551561 -0.218256,4.652198 0.08069,0.0269 0.112746,0.103856 0.07124,0.171019 -0.04151,0.06717 0.200367,0.790094 0.537502,1.606507 0.593776,1.437896 0.613013,1.533966 0.614174,3.067212 0.0016,2.103156 -0.214426,2.826032 -1.103716,3.693409 -1.369094,1.335357 -3.111033,1.824263 -4.29107,1.204365 -0.693754,-0.364442 -3.652719,-2.439952 -4.548716,-3.190612 -0.404555,-0.338933 -0.817109,-0.813133 -0.916788,-1.053781 -0.09968,-0.240648 -0.246677,-0.437541 -0.326662,-0.437541 -0.252732,0 -1.119734,0.594902 -1.044473,0.716677 0.03961,0.06409 -0.02357,0.153206 -0.140409,0.19804 -0.116834,0.04483 -0.506624,0.540495 -0.8662,1.101469 -0.840181,1.310769 -1.685291,2.222664 -2.505172,2.703148 -0.537896,0.315227 -0.886119,0.395406 -1.986914,0.457486 -0.734093,0.0414 -1.350855,0.03883 -1.370581,-0.0057 z"
     id="path3815"
     inkscape:connector-curvature="0"
     transform="translate(188.08627,13.98938)" />
  <path
     style="fill:#ececec;stroke-width:0.14389297"
     d="m 78.062748,88.851975 c -0.02996,-0.04855 -0.752202,-0.266001 -1.604977,-0.483226 -0.852776,-0.217225 -1.647629,-0.430919 -1.766341,-0.474874 -0.118711,-0.04395 -0.264403,-0.0936 -0.323759,-0.110331 -0.05936,-0.01673 -0.124108,-0.04677 -0.143893,-0.06677 -0.01978,-0.01999 -0.165477,-0.05697 -0.323759,-0.08218 -0.783324,-0.124732 -1.02468,-0.173731 -1.22309,-0.248302 -0.118712,-0.04462 -0.603865,-0.189055 -1.078118,-0.320976 -0.813349,-0.226243 -0.977229,-0.355404 -2.888019,-2.276165 -3.340009,-3.357438 -4.488004,-4.850651 -4.718378,-6.137262 -0.259548,-1.449543 0.05599,-7.043519 0.454531,-8.058006 0.07773,-0.197853 0.373693,-0.590603 0.657705,-0.87278 l 0.516384,-0.513046 -0.513449,-1.069777 c -1.551311,-3.232168 -1.627662,-5.10219 -0.300761,-7.366374 0.526915,-0.899113 1.73965,-1.980255 3.10407,-2.767252 l 1.198698,-0.691409 -0.0937,-0.585991 c -0.05154,-0.322294 -0.139224,-0.620307 -0.194861,-0.662249 -0.05564,-0.04194 -0.104972,-0.14101 -0.109637,-0.220152 -0.0231,-0.391949 -0.558809,-1.942555 -0.671121,-1.942555 -0.07084,0 -0.09468,-0.0552 -0.05299,-0.122658 0.04169,-0.06746 -0.120854,-0.698792 -0.361218,-1.402956 -0.56295,-1.649207 -0.67767,-2.96379 -0.318785,-3.65299 0.361257,-0.693755 0.818577,-0.822211 2.098974,-0.589581 0.572183,0.103958 1.137461,0.204884 1.256173,0.22428 0.118712,0.0194 0.397913,0.109096 0.620446,0.199334 1.015478,0.41178 3.840236,0.304236 3.840236,-0.146206 0,-0.07592 0.05953,-0.10124 0.132293,-0.05627 0.07276,0.04497 0.23464,-0.02059 0.359732,-0.145679 0.125092,-0.125092 0.2295,-0.174251 0.232016,-0.109242 0.0025,0.06501 0.08369,0.02107 0.180387,-0.09764 0.0967,-0.118711 0.256236,-0.231934 0.354535,-0.251605 0.0983,-0.01967 0.490631,-0.259849 0.87185,-0.533728 1.578853,-1.134293 2.884266,-1.462622 4.221885,-1.061861 0.552129,0.165421 0.564099,0.160674 1.062234,-0.421284 0.676677,-0.790545 1.230347,-0.952881 2.854491,-0.83694 1.890818,0.134979 1.96148,0.144472 1.96148,0.263532 0,0.323105 0.280116,0.02562 0.487705,-0.517937 0.512942,-1.343122 1.687639,-2.294403 3.052771,-2.472164 1.305628,-0.170014 1.824326,0.272505 2.090475,1.783449 0.08553,0.485591 0.224671,0.882893 0.309191,0.882893 0.08452,0 0.64418,-0.172111 1.243689,-0.382469 1.359315,-0.476963 2.721931,-0.528433 3.464249,-0.130857 0.686834,0.367861 4.116738,3.752791 4.551448,4.491771 0.19314,0.328328 0.48238,1.072974 0.64276,1.654769 0.16038,0.581795 0.41708,1.271954 0.57045,1.533686 0.15336,0.261733 0.27885,0.568853 0.27885,0.682489 0,0.340044 -2.64754,5.537485 -2.79561,5.488127 -0.32882,-0.109606 -0.70352,-0.854721 -0.76817,-1.527574 -0.0386,-0.4016 -0.1305,-0.730183 -0.20424,-0.730183 -0.0737,0 -0.0918,-0.06843 -0.0401,-0.152071 0.289,-0.467616 -0.62439,-1.438899 -1.159892,-1.233407 -0.106455,0.04085 -0.217809,0.0015 -0.247454,-0.08742 -0.03441,-0.103241 -0.15482,-0.11807 -0.333056,-0.04102 -0.153537,0.06637 -0.340021,0.106299 -0.414409,0.08872 -0.227157,-0.05367 -1.375624,0.432419 -1.375624,0.582231 0,0.07727 -0.06199,0.10217 -0.137765,0.05534 -0.142625,-0.08815 -0.623393,0.697967 -0.501441,0.819919 0.03783,0.03783 -0.02911,0.256482 -0.148745,0.485895 -0.119639,0.229413 -0.218533,0.514242 -0.219763,0.632954 -0.0043,0.419638 -0.855291,1.695565 -1.52248,2.282847 -1.005439,0.885023 -0.99749,0.891917 -1.139077,-0.987811 -0.05663,-0.75184 -0.135144,-1.420337 -0.174473,-1.485546 C 92.744857,56.681048 92.70671,55.96066 92.682897,53.47062 l -0.0227,-2.374226 -0.492429,-0.726699 c -0.560785,-0.827574 -1.066684,-1.243819 -1.792007,-1.474431 -0.698291,-0.222017 -4.12936,-0.191835 -4.676521,0.04114 -0.709574,0.302126 -1.572904,1.146422 -3.035661,2.968732 -1.234016,1.537342 -1.481768,1.770555 -2.283203,2.149215 -1.813048,0.856623 -2.721841,1.798194 -2.370047,2.455526 0.139452,0.26057 0.245163,0.289427 0.759805,0.207403 0.328798,-0.0524 1.068977,-0.353687 1.644842,-0.66952 0.86741,-0.475731 1.13277,-0.558156 1.54685,-0.480474 0.274901,0.05157 0.499334,0.135125 0.498738,0.185673 -5.75e-4,0.05055 -0.527703,0.739424 -1.171349,1.530835 -3.256325,4.003903 -5.119779,6.564875 -5.721271,7.862833 -0.554123,1.195738 -0.733481,2.837522 -0.462595,4.234433 0.100067,0.516028 0.571543,1.220017 1.139836,1.701958 0.102725,0.08712 0.313169,0.283919 0.467652,0.43734 0.154483,0.15342 0.280878,0.243298 0.280878,0.19973 0,-0.04357 0.400708,0.292752 0.890463,0.747379 l 0.890463,0.826593 -0.60442,0.686657 c -0.332431,0.377662 -0.574344,0.716736 -0.537583,0.753496 0.03676,0.03676 -0.02721,0.160882 -0.14215,0.275825 -0.233083,0.233083 -0.287267,1.051789 -0.06961,1.051789 0.07666,0 0.101862,0.09776 0.05601,0.217248 -0.177667,0.462993 3.471592,3.572717 4.656332,3.967902 0.299346,0.09985 0.641394,0.193703 0.760106,0.208561 0.118711,0.01486 0.312967,0.06395 0.431679,0.109097 0.118711,0.04515 0.474846,0.119174 0.791411,0.164506 0.316565,0.04533 0.802203,0.119371 1.079197,0.164529 0.276994,0.04516 0.892137,0.09392 1.366984,0.108365 0.474846,0.01444 0.949939,0.08165 1.055761,0.149341 0.106869,0.06836 0.245879,0.06788 0.312691,-0.0012 0.152229,-0.157133 0.01088,-0.915572 -0.170628,-0.915572 -0.07459,0 -0.09436,-0.06675 -0.04394,-0.148337 0.05042,-0.08158 -0.305187,-0.794142 -0.790242,-1.583464 -1.208173,-1.966036 -1.435955,-2.512843 -1.439685,-3.456068 -0.0054,-1.354532 0.461491,-2.065127 2.464985,-3.751987 1.782989,-1.501207 2.423976,-2.28492 2.424559,-2.964429 2.88e-4,-0.335441 0.11993,-0.460005 0.755438,-0.786509 0.415302,-0.21337 1.143607,-0.484968 1.618453,-0.60355 0.933307,-0.233073 2.864679,-0.326923 3.275331,-0.159154 0.139468,0.05698 0.44704,0.0752 0.683492,0.0405 0.236452,-0.0347 0.429913,-0.0171 0.429913,0.03911 0,0.274313 3.503672,0.198706 4.316782,-0.09316 0.11871,-0.04261 0.24098,-0.06776 0.2717,-0.05589 0.0307,0.01187 0.0955,-0.03987 0.14389,-0.114965 0.0484,-0.0751 0.21544,-0.09103 0.37116,-0.0354 0.23934,0.0855 0.0857,0.25492 -0.99334,1.09553 -0.70205,0.546911 -1.437864,1.140077 -1.635139,1.318145 -0.197275,0.178067 -0.436318,0.323759 -0.531209,0.323759 -0.09489,0 -0.287398,0.126934 -0.427799,0.282075 -0.140401,0.155141 -0.296129,0.270408 -0.346061,0.256148 -0.04993,-0.01426 -0.322017,0.198753 -0.604631,0.473363 -0.564154,0.548173 -1.065111,1.515133 -1.190509,2.297952 -0.04437,0.276994 -0.123311,0.665505 -0.17542,0.863358 -0.433839,1.647206 -0.665908,4.91331 -0.362436,5.100865 0.07876,0.04867 0.109921,0.175204 0.06926,0.281177 -0.04067,0.105973 0.01072,0.281965 0.114203,0.391097 0.103478,0.109131 0.200196,0.295547 0.214927,0.414259 0.01473,0.118711 0.233057,0.796082 0.485164,1.505268 0.431337,1.213365 0.453823,1.374646 0.381173,2.733967 -0.102829,1.923978 -0.274807,2.430916 -1.095443,3.229016 -1.00968,0.981951 -2.047462,1.498267 -3.02543,1.505205 -0.962862,0.0069 -1.257172,-0.135767 -3.463273,-1.678788 -2.226132,-1.557029 -2.853122,-2.080984 -3.258325,-2.722866 -0.188435,-0.2985 -0.409607,-0.542728 -0.491492,-0.542728 -0.267317,0 -1.364149,1.199634 -2.104993,2.302287 -0.779431,1.160085 -1.732936,2.122557 -2.5105,2.534108 -0.478765,0.253401 -3.109271,0.520203 -3.228241,0.327427 z"
     id="path3817"
     inkscape:connector-curvature="0"
     transform="translate(188.08627,13.98938)" />
  <path
     style="fill:#ececec;stroke-width:0.14389297"
     d="m 39.660714,87.516509 c 0.06623,-0.10716 -0.255795,-0.148418 -1.034732,-0.13257 -2.29196,0.04663 -8.065682,-0.129776 -8.958242,-0.273706 -0.506271,-0.08164 -0.975722,-0.114301 -1.043224,-0.07258 -0.0675,0.04172 -0.122487,-0.0089 -0.12219,-0.112508 2.96e-4,-0.103597 0.290377,-0.307549 0.644623,-0.453226 0.804193,-0.330713 0.792041,-0.452524 -0.186338,-1.8678 -1.391422,-2.012762 -1.785284,-3.379794 -1.264129,-4.387596 0.272636,-0.527221 2.595294,-2.649595 2.740606,-2.504283 0.03983,0.03983 0.113254,-0.03397 0.163154,-0.164008 0.0499,-0.130039 0.168814,-0.236435 0.264252,-0.236435 0.09544,0 0.354722,-0.18913 0.576187,-0.42029 l 0.402663,-0.42029 -0.393488,-0.515889 c -0.348728,-0.457207 -0.385802,-0.608562 -0.325926,-1.330598 0.05719,-0.689679 0.137554,-0.877247 0.523642,-1.222216 0.250843,-0.224127 0.557339,-0.407506 0.681101,-0.407506 0.193667,0 0.208389,-0.135343 0.10565,-0.971278 -0.06565,-0.534202 -0.114654,-1.748299 -0.108886,-2.697993 l 0.01049,-1.726716 0.748315,-1.71136 c 0.411573,-0.941249 0.714987,-1.744688 0.674253,-1.785423 -0.04073,-0.04073 -0.0044,-0.157982 0.08071,-0.26055 0.180917,-0.217992 0.208281,-5.425946 0.02882,-5.485626 -0.06278,-0.02088 -0.07458,-0.798833 -0.02623,-1.72879 0.125112,-2.40627 0.51644,-3.214098 1.793171,-3.701686 0.350374,-0.133809 0.637043,-0.273 0.637043,-0.309312 0,-0.03631 -0.218583,-0.694663 -0.48574,-1.463002 -0.267157,-0.768338 -0.568844,-1.769302 -0.670416,-2.224364 -0.101572,-0.455061 -0.242946,-0.827384 -0.314164,-0.827384 -0.07122,0 -0.09205,-0.06057 -0.0463,-0.134598 0.08631,-0.139658 -0.160474,-2.076072 -0.31294,-2.455476 -0.0477,-0.118711 -0.0768,-0.263371 -0.06466,-0.321465 0.01214,-0.0581 -0.107079,-0.659557 -0.264941,-1.336583 -0.157862,-0.677026 -0.287022,-1.269062 -0.287022,-1.315637 0,-0.04657 0.316468,-0.05427 0.703262,-0.01711 0.562067,0.05401 1.190414,0.350606 3.129672,1.477301 1.334526,0.77535 2.50735,1.41149 2.606277,1.413645 0.09893,0.0022 0.179866,0.0617 0.179866,0.132321 0,0.07062 0.05922,0.0918 0.131603,0.04707 0.07238,-0.04473 0.153322,-0.02104 0.179866,0.05266 0.02654,0.0737 0.14385,0.155042 0.260677,0.180762 0.116827,0.02572 0.29952,0.127705 0.405984,0.226632 0.106463,0.09893 0.318448,0.179866 0.471078,0.179866 0.366642,0 0.363032,-0.506733 -0.01213,-1.703562 -0.49084,-1.565826 -0.282032,-2.469334 0.570676,-2.469334 0.566143,0 1.132569,0.688043 1.646468,1.999983 0.526262,1.343495 1.296404,2.172913 2.01762,2.172913 1.138771,0 2.503604,-0.933809 3.36497,-2.302287 0.717285,-1.139572 1.169796,-1.582823 1.615887,-1.582823 0.808794,0 1.014024,0.689957 0.704029,2.366865 -0.275296,1.489217 -0.334804,1.449286 2.126998,1.427209 1.170765,-0.0105 2.208788,-0.02669 2.306723,-0.03597 0.09793,-0.0093 0.338858,-0.271604 0.53539,-0.582929 0.476368,-0.754616 0.895823,-1.140746 1.588836,-1.462606 1.148965,-0.53362 2.064945,-0.211419 2.800589,0.985121 0.851094,1.384322 0.686037,1.328728 1.865164,0.628222 0.572026,-0.339834 1.06593,-0.591997 1.097565,-0.560362 0.03164,0.03164 -0.07681,0.409795 -0.240996,0.840354 -0.268847,0.705031 -0.29011,0.983051 -0.213946,2.797336 0.04651,1.107976 0.123425,2.312962 0.170916,2.677747 l 0.08635,0.663245 -0.732345,0.09715 c -0.402788,0.05343 -0.732343,0.163492 -0.732343,0.244578 0,0.08109 -0.06077,0.10987 -0.13505,0.06396 -0.07428,-0.04591 -0.201811,0.03121 -0.28341,0.171374 -0.0816,0.140162 -0.15033,0.210654 -0.152736,0.15665 -0.0024,-0.054 -0.331112,0.121688 -0.730456,0.390427 -0.870014,0.585476 -1.472543,0.718324 -2.559931,0.564424 -0.448216,-0.06344 -1.04157,-0.126798 -1.318564,-0.140802 -0.276994,-0.014 -0.609358,-0.0715 -0.738586,-0.127776 -0.129228,-0.05627 -0.600761,-0.07547 -1.047853,-0.04267 -0.447091,0.0328 -0.847007,0.0044 -0.888701,-0.06302 -0.0417,-0.06746 -0.579968,-0.122663 -1.196161,-0.122663 -0.911342,0 -1.165745,-0.05016 -1.36368,-0.268876 -0.333155,-0.368133 -2.207837,-1.216046 -2.467931,-1.116239 -0.115919,0.04448 -0.371825,0.445071 -0.568682,0.890198 -0.196856,0.445126 -0.778255,1.45085 -1.291999,2.234941 -0.513743,0.784092 -0.898544,1.425621 -0.855112,1.425621 0.04343,0 -0.02338,0.102348 -0.148473,0.22744 -0.125092,0.125092 -0.190648,0.286972 -0.145678,0.359733 0.04497,0.07276 0.02066,0.132292 -0.05402,0.132292 -0.227092,0 -0.155553,1.469559 0.08976,1.843962 0.124051,0.189325 0.576639,0.603594 1.005751,0.920599 l 0.780205,0.57637 -0.674967,0.685272 -0.674968,0.68527 2.350607,0.02225 c 3.511098,0.03323 3.985417,0.124332 5.136591,0.986602 0.476802,0.357143 0.500974,0.359888 1.696006,0.192712 0.905278,-0.126642 1.506665,-0.12929 2.37458,-0.01046 0.639251,0.08752 1.252023,0.124696 1.36172,0.0826 0.156944,-0.06023 0.199447,0.115908 0.199447,0.826516 v 0.903051 l -1.030292,0.267223 c -0.566661,0.146973 -1.311307,0.416639 -1.654769,0.599261 -0.343463,0.182621 -0.624477,0.29982 -0.624477,0.260444 0,-0.114958 -0.686286,0.271123 -2.29372,1.290369 -0.826271,0.523922 -1.748985,1.026492 -2.050475,1.11682 -0.301492,0.09033 -0.548166,0.222564 -0.548166,0.293849 0,0.07129 -0.05609,0.09494 -0.124643,0.05258 -0.06855,-0.04237 -0.764636,0.08579 -1.54685,0.284806 -0.782213,0.199011 -1.681213,0.343171 -1.997778,0.320353 l -0.575572,-0.04148 -0.08853,-1.088406 c -0.13608,-1.672926 -0.358357,-1.90304 -1.854022,-1.919373 -0.909771,-0.0099 -1.439196,0.158153 -1.43758,0.45642 0.0036,0.665606 1.670409,2.763185 2.022699,2.545459 0.0573,-0.03542 0.138002,0.02372 0.179328,0.131414 0.04886,0.127325 -0.394556,0.503331 -1.267826,1.075093 -1.474247,0.96524 -1.934627,1.484083 -2.044639,2.304283 -0.07718,0.575401 0.312079,2.363834 0.53107,2.439992 0.0716,0.0249 0.09771,0.129865 0.05803,0.233259 -0.03968,0.103395 0.01253,0.277278 0.116003,0.386409 0.103478,0.109131 0.19052,0.263172 0.193427,0.342313 0.0029,0.07914 0.09209,0.532404 0.198185,1.007251 0.273529,1.224234 0.131249,3.299126 -0.325612,4.748468 -0.50696,1.60827 -0.587974,2.163507 -0.386611,2.64964 0.205195,0.495385 0.04918,0.861765 -0.852939,2.003034 -0.424416,0.536925 -0.68651,0.743312 -0.943941,0.743312 -0.196013,0 -0.356387,0.06475 -0.356387,0.143893 0,0.0813 -0.410528,0.143893 -0.943797,0.143893 -0.639819,0 -0.912827,-0.05011 -0.847643,-0.15558 z"
     id="path3819"
     inkscape:connector-curvature="0"
     transform="translate(188.08627,13.98938)" />
  <path
     style="fill:#ececec;stroke-width:0.14389297"
     d="m 39.581545,87.5416 c 0,-0.116382 -3.019547,-0.20114 -7.914113,-0.222142 -0.910123,-0.0039 -1.689988,-0.05408 -1.733033,-0.111502 -0.04304,-0.05742 -0.382673,-0.122172 -0.754728,-0.143892 -0.372055,-0.02172 -0.674437,-0.104245 -0.67196,-0.183386 0.0025,-0.07914 0.277353,-0.273397 0.610835,-0.431679 0.755495,-0.358584 0.740069,-0.499595 -0.20842,-1.905196 -1.357065,-2.011085 -1.727812,-3.33299 -1.213644,-4.327282 0.287223,-0.555429 2.585847,-2.659042 2.738614,-2.506275 0.04093,0.04093 0.115246,-0.03198 0.165146,-0.162016 0.0499,-0.130039 0.168814,-0.236435 0.264252,-0.236435 0.09544,0 0.354722,-0.18913 0.576187,-0.42029 l 0.402663,-0.42029 -0.375742,-0.492623 c -0.29491,-0.386647 -0.375742,-0.655312 -0.375742,-1.248869 0,-0.668185 0.05697,-0.813212 0.489236,-1.245481 0.26908,-0.26908 0.597993,-0.489236 0.730918,-0.489236 0.214234,0 0.228124,-0.110308 0.122309,-0.971278 -0.201258,-1.637538 -0.125104,-5.071169 0.112489,-5.071941 0.09061,-2.87e-4 0.99161,-2.061386 1.069465,-2.446466 0.024,-0.118712 0.05355,-0.21584 0.06566,-0.21584 0.01211,0 0.0613,-0.129504 0.109299,-0.287786 0.134801,-0.444477 0.205398,-5.683782 0.07659,-5.683692 -0.06267,4.5e-5 -0.07438,-0.760789 -0.02602,-1.690742 0.125385,-2.411514 0.515699,-3.213806 1.802615,-3.705284 0.355568,-0.135793 0.618224,-0.320857 0.58368,-0.411254 -0.199723,-0.522648 -1.107225,-3.419029 -1.107225,-3.533816 0,-0.07545 -0.07154,-0.319469 -0.158969,-0.542259 -0.08743,-0.22279 -0.185339,-0.717562 -0.21757,-1.099494 -0.03223,-0.381932 -0.124857,-0.964699 -0.205837,-1.295037 -0.08098,-0.330338 -0.167486,-0.762495 -0.192239,-0.960348 -0.09105,-0.727787 -0.267186,-1.43895 -0.356569,-1.439675 -0.05055,-4.17e-4 -0.107217,-0.267571 -0.125929,-0.593692 l -0.03402,-0.592946 0.691917,0.06648 c 0.541638,0.05204 1.222146,0.368505 3.133206,1.45705 1.342709,0.764811 2.519761,1.390565 2.615671,1.390565 0.09591,0 0.174382,0.06857 0.174382,0.152385 0,0.08381 0.05922,0.115785 0.131603,0.07105 0.07238,-0.04473 0.153322,-0.02104 0.179866,0.05266 0.02654,0.0737 0.14385,0.155042 0.260677,0.180762 0.116827,0.02572 0.29952,0.127705 0.405984,0.226632 0.106463,0.09893 0.318448,0.179866 0.471078,0.179866 0.361274,0 0.359016,-0.363413 -0.01028,-1.654769 -0.346101,-1.210252 -0.362401,-1.771994 -0.06379,-2.198324 0.556444,-0.794435 1.488907,-0.189582 2.168945,1.406913 0.985308,2.31316 1.739607,2.817152 3.21479,2.147996 0.977327,-0.443325 1.526503,-0.922286 2.181851,-1.902892 1.136618,-1.700734 1.749538,-2.065133 2.35264,-1.398713 0.225128,0.248764 0.243471,0.428516 0.143166,1.402956 -0.205893,2.0002 -0.211869,1.967294 0.36269,1.997266 0.874512,0.04562 3.375303,0.08239 3.525378,0.05183 0.07914,-0.01611 0.245059,-0.01983 0.368708,-0.0083 0.124309,0.01163 0.467931,-0.331951 0.768622,-0.76854 0.599548,-0.87052 1.65519,-1.521649 2.466967,-1.521649 0.645476,0 1.358922,0.535326 1.886572,1.41557 0.250037,0.417123 0.501805,0.749369 0.559483,0.738325 0.05768,-0.01104 0.146898,0.04792 0.198265,0.131036 0.0579,0.09368 0.464295,-0.07101 1.069324,-0.433359 0.536761,-0.321461 1.00298,-0.557425 1.036041,-0.524363 0.03306,0.03306 -0.07574,0.444048 -0.241786,0.913301 -0.26729,0.755381 -0.292285,1.059382 -0.218042,2.651851 0.04612,0.989264 0.127103,2.170985 0.179958,2.626046 l 0.0961,0.827385 h -0.394091 c -0.354537,0 -1.334806,0.367137 -1.51678,0.568075 -0.127924,0.141254 -0.918658,0.592464 -1.574145,0.898242 -0.555441,0.259108 -0.780856,0.283423 -1.726715,0.186255 -0.598332,-0.06147 -1.282131,-0.12458 -1.519555,-0.14025 -0.237423,-0.01567 -0.535126,-0.07411 -0.661562,-0.129869 -0.126437,-0.05576 -0.693016,-0.07226 -1.259064,-0.03667 -0.566049,0.03559 -1.02918,0.0064 -1.02918,-0.06497 0,-0.07132 -0.41438,-0.129676 -0.920844,-0.129676 -0.807633,0 -1.009673,-0.05978 -1.643344,-0.486207 -0.820851,-0.552391 -1.922261,-0.970767 -2.163356,-0.821761 -0.08914,0.05509 -0.360199,0.509167 -0.602346,1.009054 -0.242149,0.499887 -0.762891,1.386987 -1.157203,1.971333 -0.394313,0.584346 -0.758663,1.175561 -0.809667,1.31381 -0.05101,0.13825 -0.150328,0.290221 -0.220718,0.337714 -0.07039,0.04749 -0.141686,0.176997 -0.158435,0.287786 -0.01675,0.110789 -0.07288,0.269207 -0.124733,0.352039 -0.18395,0.293841 -8.64e-4,1.537538 0.282169,1.916609 0.155618,0.208432 0.323045,0.364251 0.37206,0.346264 0.04902,-0.01799 0.238483,0.116659 0.421035,0.299211 0.182553,0.182553 0.459219,0.403976 0.614815,0.492051 0.265681,0.15039 0.240498,0.203361 -0.413672,0.870158 l -0.696575,0.71002 2.456012,0.02476 c 3.146291,0.03172 3.816207,0.143447 4.807759,0.8018 l 0.786658,0.522311 1.196711,-0.163852 c 0.903222,-0.123669 1.487574,-0.122564 2.382723,0.0045 0.652307,0.09259 1.254537,0.126004 1.338288,0.07424 0.101021,-0.06243 0.152275,0.214534 0.152275,0.822849 v 0.916958 l -1.150604,0.332473 c -0.632833,0.182859 -1.37037,0.45026 -1.638974,0.594222 -0.268602,0.143964 -0.516461,0.233659 -0.550795,0.199324 -0.03434,-0.03433 -0.899406,0.456189 -1.922378,1.090052 -1.022973,0.633864 -2.10277,1.22628 -2.39955,1.316481 -0.296779,0.0902 -0.539598,0.222324 -0.539598,0.293608 0,0.07129 -0.04985,0.0988 -0.110766,0.06115 -0.06092,-0.03765 -0.757004,0.08941 -1.54685,0.282362 -0.789845,0.192951 -1.69509,0.333251 -2.011655,0.311778 l -0.575572,-0.03904 -0.0913,-1.021409 c -0.161236,-1.803834 -0.289581,-1.928399 -1.986897,-1.928399 -1.266905,0 -1.458247,0.184969 -1.073638,1.03788 0.29122,0.64581 1.58315,2.036583 1.779256,1.915384 0.06563,-0.04056 0.153297,0.01476 0.194808,0.122935 0.04914,0.128054 -0.418934,0.531139 -1.34142,1.155173 -1.466893,0.99231 -2.015901,1.685772 -2.011731,2.541054 0.002,0.406595 0.342624,1.747303 0.51468,2.025696 0.06463,0.104571 0.126889,0.317481 0.138357,0.473133 0.01147,0.155653 0.09587,0.308013 0.187575,0.33858 0.0917,0.03056 0.130124,0.114796 0.08539,0.187177 -0.04473,0.07238 -0.02895,0.131603 0.03508,0.131603 0.12859,0 0.132807,0.03314 0.265413,2.086448 0.09769,1.512629 0.01295,2.09223 -0.658741,4.505745 -0.289432,1.039988 -0.309338,1.261394 -0.15242,1.695343 0.164615,0.455233 0.147054,0.556188 -0.199636,1.147772 -0.590767,1.008067 -1.209673,1.644451 -1.59929,1.644451 -0.189655,0 -0.344826,0.06475 -0.344826,0.143893 0,0.08117 -0.407697,0.143893 -0.935304,0.143893 -0.514418,0 -0.935305,-0.05872 -0.935305,-0.130489 z"
     id="path3821"
     inkscape:connector-curvature="0"
     transform="translate(188.08627,13.98938)" />
  <path
     style="fill:#ececec;stroke-width:0.14389297"
     d="m 39.459844,87.544957 c -0.106507,-0.0675 -1.304416,-0.131324 -2.66202,-0.141831 -3.155004,-0.02442 -6.865921,-0.151179 -7.008673,-0.239404 -0.06075,-0.03755 -0.375262,-0.07864 -0.698911,-0.09132 -0.754557,-0.02957 -0.760382,-0.296371 -0.01288,-0.589996 0.397728,-0.156233 0.575572,-0.312885 0.575572,-0.506991 0,-0.154495 -0.333677,-0.791034 -0.741506,-1.414531 -1.382565,-2.113702 -1.728602,-3.35105 -1.214942,-4.344359 0.233809,-0.452138 2.594771,-2.694396 2.819806,-2.678033 0.0852,0.0062 0.198009,-0.07731 0.855794,-0.63349 l 0.496062,-0.419438 -0.388142,-0.46128 c -0.319068,-0.379192 -0.388142,-0.602718 -0.388142,-1.256042 0,-0.711987 0.05095,-0.845712 0.489236,-1.283996 0.26908,-0.26908 0.594642,-0.489236 0.723472,-0.489236 0.204306,0 0.219935,-0.124106 0.122309,-0.971278 -0.200401,-1.739034 -0.122057,-5.072227 0.119218,-5.072227 0.101296,0 0.71637,-1.453613 1.09595,-2.590073 0.235103,-0.703898 0.441676,-5.40572 0.257516,-5.861355 -0.144318,-0.357062 -0.08403,-2.70893 0.0903,-3.522402 0.195272,-0.911219 0.654025,-1.563281 1.348004,-1.916022 0.968878,-0.492469 0.937008,-0.43977 0.695172,-1.149519 -0.120868,-0.35473 -0.276393,-0.644963 -0.345611,-0.644963 -0.06922,0 -0.08858,-0.09713 -0.04303,-0.215839 0.04555,-0.118712 0.0073,-0.21584 -0.08496,-0.21584 -0.09228,0 -0.130545,-0.06025 -0.08504,-0.133883 0.09341,-0.151144 -0.461248,-2.29925 -0.656206,-2.541376 -0.06959,-0.08642 -0.09633,-0.187325 -0.05943,-0.224227 0.05582,-0.05582 -0.06478,-0.880834 -0.407024,-2.784286 -0.02846,-0.158282 -0.09937,-0.562981 -0.157589,-0.899331 -0.05821,-0.33635 -0.148718,-0.611881 -0.201117,-0.612291 -0.0524,-4.1e-4 -0.110583,-0.267571 -0.129295,-0.593692 l -0.03402,-0.592946 0.711018,0.06832 c 0.560975,0.0539 1.190638,0.341825 2.983829,1.364401 1.250046,0.712845 2.418502,1.342137 2.59657,1.398427 0.178067,0.05629 0.323759,0.173525 0.323759,0.260523 0,0.087 0.04331,0.114869 0.09624,0.06194 0.05293,-0.05293 0.214813,0.01106 0.359732,0.142212 0.144919,0.131151 0.26349,0.191419 0.26349,0.133929 0,-0.05749 0.101753,-0.0028 0.226117,0.121591 0.289676,0.289676 0.621994,0.289388 0.733286,-6.33e-4 0.04786,-0.124715 -0.0513,-0.731458 -0.220354,-1.348319 -0.169055,-0.616864 -0.30737,-1.309815 -0.30737,-1.539894 0,-1.021716 0.921328,-1.400523 1.610653,-0.662226 0.203203,0.217638 0.666544,1.020496 1.029646,1.784129 0.990664,2.083443 1.626238,2.378037 3.282714,1.521568 0.715518,-0.369954 1.060077,-0.672092 1.599936,-1.402957 1.33465,-1.806855 1.5333,-2.01066 1.959811,-2.01066 0.220688,0 0.518705,0.129784 0.662258,0.288409 0.235451,0.26017 0.247845,0.424356 0.126579,1.676821 -0.105003,1.084496 -0.09386,1.428978 0.05089,1.573735 0.134173,0.134173 0.762715,0.185324 2.277262,0.185324 h 2.091938 l 0.604241,-0.785751 c 0.659549,-0.857671 1.716659,-1.499989 2.46713,-1.499071 0.655379,8.06e-4 1.31582,0.477395 1.876806,1.354357 0.275373,0.430479 0.623381,0.821633 0.773352,0.869231 0.173829,0.05517 0.593556,-0.104605 1.157868,-0.440765 0.486858,-0.290019 0.912751,-0.499754 0.946428,-0.466077 0.03368,0.03368 -0.06218,0.447148 -0.213025,0.918823 -0.285234,0.891918 -0.305835,2.576821 -0.06195,5.066462 0.09792,0.999584 0.08941,1.043224 -0.203341,1.043224 -0.304673,0 -1.469829,0.410289 -1.606398,0.565664 -0.122492,0.13936 -0.905519,0.588722 -1.553506,0.891524 -0.52186,0.243863 -0.813375,0.277078 -1.870609,0.213131 -0.688824,-0.04166 -1.252407,-0.08674 -1.252407,-0.100179 0,-0.06854 -0.988333,-0.158901 -1.965467,-0.179699 -0.606161,-0.0129 -1.151155,-0.07202 -1.2111,-0.131378 -0.05994,-0.05936 -0.491029,-0.107919 -0.957966,-0.107919 -0.677245,0 -0.941663,-0.0707 -1.307187,-0.349495 -0.623794,-0.475791 -1.770154,-0.951698 -2.155878,-0.895004 -0.202178,0.02972 -0.440049,0.275893 -0.65849,0.681483 -0.188085,0.349229 -0.608972,1.086534 -0.935304,1.638454 -0.326331,0.551921 -0.560954,1.025926 -0.521383,1.053346 0.03957,0.02742 -0.04273,0.11403 -0.182893,0.192468 -0.140161,0.07844 -0.217279,0.203388 -0.171375,0.277665 0.04591,0.07428 0.02069,0.135049 -0.05605,0.135049 -0.07673,0 -0.300771,0.3236 -0.497861,0.719111 -0.418567,0.839955 -0.412322,1.953854 0.01273,2.272863 0.136354,0.102332 0.231729,0.231836 0.211944,0.287786 -0.01978,0.05595 0.01259,0.101725 0.07195,0.101725 0.05936,0 0.241355,0.133435 0.404443,0.296523 0.163087,0.163087 0.452142,0.405522 0.642343,0.538744 l 0.345821,0.242222 -0.606371,0.617847 c -0.333497,0.339814 -0.606362,0.655749 -0.606362,0.702075 0,0.04633 1.111075,0.09607 2.469055,0.110536 3.004569,0.03201 3.630251,0.140997 4.633464,0.807094 l 0.780738,0.51838 1.155678,-0.168982 c 0.875679,-0.128042 1.45566,-0.129062 2.393833,-0.0042 0.680987,0.09062 1.30103,0.125909 1.377878,0.07841 0.08477,-0.05239 0.139236,0.270673 0.138489,0.821471 l -0.0013,0.907824 -1.329778,0.444678 c -1.971901,0.659404 -2.20302,0.765414 -3.829415,1.75649 -1.690783,1.030311 -3.053281,1.693758 -3.687761,1.795699 -0.237423,0.03815 -0.931252,0.17857 -1.54184,0.312049 -0.61059,0.133481 -1.32286,0.222234 -1.582823,0.197229 -0.439963,-0.04232 -0.475438,-0.08528 -0.512815,-0.621035 -0.02208,-0.316565 -0.105711,-0.90635 -0.185837,-1.310634 -0.176561,-0.891165 -0.463157,-1.063599 -1.767715,-1.063599 -1.140352,0 -1.467044,0.204295 -1.247999,0.780428 0.281611,0.740692 1.450162,2.08178 1.823417,2.092644 0.09046,0.0026 0.19965,0.09646 0.242645,0.208504 0.05229,0.136262 -0.299669,0.451778 -1.062933,0.952875 -1.358262,0.891725 -2.100453,1.670048 -2.224856,2.333173 -0.08224,0.438391 0.237675,2.094305 0.479217,2.480459 0.04996,0.07988 0.110776,0.274732 0.13514,0.433014 0.02436,0.158282 0.10758,0.309504 0.184925,0.336049 0.07735,0.02654 0.104028,0.107485 0.05929,0.179866 -0.04473,0.07238 -0.02895,0.131698 0.03508,0.131815 0.17059,2.88e-4 0.261391,1.010372 0.252222,2.805701 -0.0062,1.206595 -0.08704,1.856443 -0.340244,2.733967 -0.567945,1.968286 -0.609371,2.230112 -0.43597,2.75552 0.142377,0.431408 0.117006,0.562476 -0.220305,1.138052 -0.538796,0.919387 -1.209919,1.646307 -1.519939,1.646307 -0.145412,0 -0.304406,0.06475 -0.353318,0.143893 -0.108056,0.174839 -1.793238,0.18852 -2.064256,0.01676 z"
     id="path3823"
     inkscape:connector-curvature="0"
     transform="translate(188.08627,13.98938)" />
  <path
     style="fill:#ececec;stroke-width:0.14389297"
     d="m 39.221813,87.54031 c -0.237424,-0.05628 -1.661964,-0.11661 -3.165646,-0.134076 -3.38786,-0.03935 -6.142376,-0.144785 -6.236297,-0.238706 -0.03906,-0.03906 -0.351602,-0.07101 -0.694547,-0.07101 -0.668871,0 -0.88781,-0.328408 -0.335751,-0.503625 0.158283,-0.05024 0.287786,-0.151728 0.287786,-0.225537 0,-0.07381 0.04856,-0.126528 0.10792,-0.117156 0.666876,0.105297 0.605281,-0.277367 -0.262365,-1.62995 -1.398199,-2.179668 -1.73853,-3.413438 -1.218816,-4.418454 0.266009,-0.514406 2.057221,-2.179867 3.127026,-2.907497 0.450154,-0.306173 0.859493,-0.62307 0.909644,-0.704215 0.05015,-0.08115 -0.07534,-0.345436 -0.278862,-0.587311 -0.299719,-0.356194 -0.370045,-0.590816 -0.370045,-1.234534 0,-0.709626 0.05046,-0.843314 0.471109,-1.248023 0.25911,-0.249294 0.580682,-0.518014 0.714605,-0.597156 0.217457,-0.128505 0.227262,-0.266997 0.09168,-1.295036 -0.0835,-0.633129 -0.122562,-1.831038 -0.08681,-2.66202 0.06863,-1.595155 0.110417,-1.893312 0.283479,-2.022477 0.0589,-0.04396 0.370717,-0.779521 0.692936,-1.634586 l 0.585851,-1.554663 0.02051,-2.610257 c 0.01128,-1.435642 0.0105,-3.254586 -0.0017,-4.042099 -0.03818,-2.458309 0.345267,-3.452945 1.583716,-4.108038 0.37404,-0.197853 0.680259,-0.452263 0.680488,-0.565356 6.39e-4,-0.315506 -0.331227,-1.16136 -0.455652,-1.16136 -0.06076,0 -0.0732,-0.09713 -0.02764,-0.215839 0.04555,-0.118712 0.0073,-0.21584 -0.08496,-0.21584 -0.09228,0 -0.133248,-0.05587 -0.09104,-0.124165 0.06786,-0.109801 -0.357946,-1.896212 -0.587771,-2.465908 -0.04789,-0.118712 -0.113223,-0.474847 -0.145184,-0.791412 -0.03196,-0.316564 -0.115865,-0.769827 -0.186453,-1.00725 -0.07059,-0.237424 -0.161288,-0.690687 -0.201556,-1.007251 -0.161858,-1.272467 -0.276418,-1.798662 -0.391594,-1.798662 -0.06654,0 -0.08371,-0.09713 -0.03816,-0.21584 0.04555,-0.118712 0.02013,-0.215839 -0.05651,-0.215839 -0.07663,0 -0.106978,-0.169257 -0.06743,-0.376127 0.0679,-0.355181 0.110321,-0.372435 0.761785,-0.309838 0.519605,0.04993 1.162856,0.333994 2.606138,1.150897 1.05394,0.596535 2.207638,1.230299 2.563773,1.408365 0.356135,0.178066 0.687134,0.385341 0.735553,0.46061 0.04842,0.07527 0.11317,0.126771 0.143893,0.114448 0.08566,-0.03436 0.745082,0.26333 1.023176,0.4619 0.188733,0.134762 0.287864,0.136963 0.415602,0.0092 0.127737,-0.127737 0.09436,-0.460362 -0.139933,-1.394515 -0.169226,-0.674721 -0.307682,-1.408957 -0.307682,-1.631635 0,-1.00926 0.925275,-1.381663 1.611941,-0.648769 0.20391,0.217638 0.634571,0.953521 0.957023,1.635295 0.633417,1.339258 1.37114,2.141895 1.968672,2.141895 0.195099,0 0.354725,-0.06857 0.354725,-0.152385 0,-0.08381 0.05932,-0.115725 0.131817,-0.07092 0.0725,0.04481 0.31532,0.01263 0.539599,-0.0715 0.768145,-0.288142 1.432912,-0.858317 2.131628,-1.82831 1.029516,-1.429227 1.370629,-1.762002 1.80615,-1.762002 0.210351,0 0.496117,0.125594 0.635037,0.279098 0.222174,0.245499 0.240213,0.460533 0.149852,1.786266 l -0.10273,1.507168 0.771782,0.09539 c 0.424479,0.05247 1.449144,0.07423 2.277034,0.04837 l 1.505253,-0.04702 0.538393,-0.719465 c 0.608201,-0.812753 1.758632,-1.510876 2.489758,-1.510876 0.631566,0 1.349136,0.513131 1.907224,1.363848 0.669437,1.020454 0.762466,1.042099 1.854383,0.431464 0.51782,-0.289581 0.969669,-0.498333 1.00411,-0.463893 0.03444,0.03444 -0.04119,0.347915 -0.168076,0.69661 -0.265321,0.72915 -0.326187,2.624208 -0.154593,4.81324 l 0.113293,1.445282 -0.725189,0.185861 c -0.398853,0.102223 -0.872548,0.299514 -1.052656,0.438426 -0.180107,0.138911 -0.75939,0.463466 -1.287296,0.721234 -0.939294,0.458643 -0.988547,0.466579 -2.302287,0.370982 -0.738352,-0.05373 -1.989978,-0.131763 -2.781389,-0.173411 -0.791412,-0.04165 -1.54799,-0.133545 -1.681283,-0.204216 -0.133294,-0.07067 -0.598923,-0.128491 -1.034732,-0.128491 -0.435808,0 -0.836227,-0.07095 -0.889818,-0.15766 -0.178062,-0.28811 -2.072918,-1.111748 -2.375588,-1.032598 -0.160999,0.0421 -0.3905,0.213818 -0.510002,0.381591 -0.361653,0.50774 -1.518293,2.593715 -1.554424,2.803367 -0.01858,0.107821 -0.143595,0.257492 -0.277809,0.332603 -0.134217,0.07511 -0.206469,0.197337 -0.160565,0.271614 0.04591,0.07428 0.02637,0.135049 -0.04341,0.135049 -0.270736,0 -0.753462,1.263552 -0.753462,1.972216 0,0.625416 0.0647,0.784222 0.503625,1.23617 0.276994,0.285212 0.503626,0.494382 0.503626,0.464822 0,-0.02956 0.198592,0.144847 0.441317,0.387571 l 0.441316,0.441316 -0.595944,0.607222 c -0.581012,0.592011 -0.587564,0.609468 -0.261451,0.696795 0.183972,0.04926 1.280746,0.09045 2.437275,0.09154 2.642688,0.0025 3.44244,0.14949 4.403102,0.80944 l 0.750163,0.515342 0.976553,-0.163808 c 1.077315,-0.180708 3.347257,-0.151089 3.349417,0.04371 7.19e-4,0.06793 0.163248,0.08289 0.361101,0.03323 0.355122,-0.08913 0.359732,-0.0787 0.359732,0.813703 v 0.903992 l -1.259063,0.418294 c -1.433438,0.476223 -2.969746,1.202405 -4.401148,2.080331 -1.396997,0.856822 -2.617036,1.390763 -3.656859,1.600395 -0.494632,0.09972 -0.899509,0.221025 -0.899727,0.269566 -2.87e-4,0.04854 -0.501809,0.08826 -1.114649,0.08826 H 47.712574 L 47.605397,68.31846 c -0.181905,-1.709559 -0.41932,-1.942555 -1.9794,-1.942555 -0.916283,0 -1.352371,0.251226 -1.193661,0.687656 0.253951,0.698339 1.545128,2.190204 1.895574,2.190204 0.07136,0 0.165087,0.0921 0.208285,0.204672 0.05217,0.135965 -0.24035,0.412437 -0.871403,0.823584 -1.309763,0.853344 -2.392991,1.926835 -2.300644,2.279965 0.0396,0.151417 0.0045,0.29779 -0.07791,0.32527 -0.165288,0.0551 0.05521,1.243741 0.393687,2.122227 0.365845,0.949526 0.407981,1.079392 0.385179,1.187117 -0.01256,0.05936 0.02925,0.10792 0.09292,0.10792 0.164881,0 0.245779,0.976946 0.232348,2.805913 -0.0095,1.292122 -0.09396,1.890752 -0.459951,3.259445 -0.368064,1.376449 -0.422976,1.768442 -0.306721,2.189486 0.115284,0.417522 0.08944,0.614079 -0.139031,1.057344 -0.408326,0.792213 -1.293161,1.767571 -1.603521,1.767571 -0.147445,0 -0.3081,0.06475 -0.357012,0.143893 -0.09972,0.161352 -1.63851,0.169448 -2.302287,0.01212 z"
     id="path3825"
     inkscape:connector-curvature="0"
     transform="translate(188.08627,13.98938)" />
</svg>
